# Blender v2.76 (sub 0) OBJ File: 'coffin4_done.blend'
# www.blender.org
o Coffin.Half-Hour.Pieces-Smaller.002_Coffin.Half-Hour.Pieces-Smaller.008
v -2.941322 -2.941294 -1.028402
v -3.051601 -2.941294 -1.138706
v -2.941322 -3.051603 -1.138706
v -2.941322 -1.138706 -1.028402
v -3.051601 -1.138706 -1.138706
v -1.138681 -1.138706 -3.051602
v -1.138681 -1.028402 -2.941298
v -1.028402 -1.138706 -2.941298
v -1.138681 -1.028402 -1.138706
v -2.941322 -1.028402 -1.138706
v -1.138681 -1.138706 -1.028402
v -1.028402 -1.138706 -1.138706
v -2.941321 -3.051603 -2.941298
v -3.051601 -2.941294 -2.941298
v -2.941321 -2.941294 -3.051602
v -1.028402 -2.941294 -1.138706
v -1.138681 -2.941294 -1.028402
v -1.138681 -2.941294 -3.051602
v -2.941322 -1.138706 -3.051602
v -3.051601 -1.138706 -2.941298
v -2.941322 -1.028402 -2.941298
v -1.028402 -2.941294 -2.941298
v -1.138681 -3.051602 -2.941298
v -1.138681 -3.051602 -1.138706
v -3.051601 -0.901298 -1.138706
v -2.941322 -1.011602 -2.941298
v -2.941322 -1.011602 -1.138706
v -3.051601 -0.901298 -2.941298
v -2.941322 1.011598 -2.941298
v -1.138681 1.011598 -1.138706
v -1.138681 1.011598 -2.941298
v -2.941321 1.011598 -1.138706
v -2.941321 0.901294 -1.028402
v -3.051601 0.901294 -1.138706
v -2.941322 -0.901298 -1.028402
v -1.138681 0.901294 -1.028402
v -1.028402 0.901294 -1.138706
v -1.028402 -0.901298 -2.941298
v -1.028402 0.901294 -2.941298
v -1.028402 -0.901298 -1.138706
v -2.941322 -0.901298 -3.051602
v -3.051601 0.901294 -2.941298
v -1.138681 -0.901298 -1.028402
v -1.138681 -0.901298 -3.051602
v -1.138681 0.901294 -3.051602
v -1.138681 -1.011602 -1.138706
v -2.941322 0.901294 -3.051602
v -1.138681 -1.011602 -2.941298
v -0.901321 -3.051602 -0.901298
v -1.011600 -2.941294 -0.901298
v -0.901321 -2.941294 -1.011602
v -0.901321 -2.941294 1.011598
v -1.011600 -1.138706 0.901289
v -1.011600 -2.941294 0.901289
v -0.901321 -1.138706 1.011598
v 0.901319 -1.028402 0.901289
v -0.901321 -1.028402 0.901289
v 0.901319 -1.138706 1.011598
v 1.011598 -1.138706 0.901289
v 1.011599 -2.941294 -0.901298
v 1.011598 -1.138706 -0.901298
v 1.011598 -2.941294 0.901289
v -0.901321 -3.051602 0.901289
v 0.901319 -1.138706 -1.011602
v -0.901321 -1.028402 -0.901298
v 0.901319 -1.028402 -0.901298
v -0.901321 -1.138706 -1.011602
v -1.011600 -1.138706 -0.901298
v 0.901319 -3.051603 -0.901298
v 0.901319 -2.941294 -1.011602
v 0.901319 -2.941294 1.011598
v 0.901319 -3.051603 0.901289
v -1.011600 -2.941294 -2.941298
v -0.901321 -1.138706 -3.051602
v -0.901321 -2.941294 -3.051602
v -1.011600 -1.138706 -2.941298
v -0.901321 -2.941294 -1.028402
v -1.011600 -2.941294 -1.138706
v -0.901321 -3.051602 -1.138706
v -1.011600 -1.138706 -1.138706
v -0.901321 -1.138706 -1.028402
v 0.901319 -1.138706 -3.051603
v -0.901321 -1.028402 -2.941298
v 0.901319 -1.028402 -2.941298
v 0.901319 -1.028402 -1.138706
v -0.901321 -1.028402 -1.138706
v 0.901319 -1.138706 -1.028402
v 0.901320 -3.051603 -2.941298
v 0.901319 -3.051603 -1.138706
v -0.901321 -3.051602 -2.941298
v 1.011599 -2.941294 -2.941298
v 0.901320 -2.941294 -3.051603
v 1.011599 -1.138706 -2.941298
v 1.011598 -1.138706 -1.138706
v 1.011599 -2.941294 -1.138706
v 0.901319 -2.941294 -1.028402
v 1.138679 -2.941294 -1.028402
v 1.028400 -2.941294 -1.138706
v 1.138679 -3.051603 -1.138706
v 1.028400 -1.138706 -1.138706
v 1.138679 -1.138706 -1.028402
v 2.941320 -1.138706 -3.051603
v 2.941320 -1.028402 -2.941299
v 3.051599 -1.138706 -2.941299
v 2.941320 -1.028402 -1.138706
v 1.138679 -1.028402 -1.138706
v 2.941320 -1.138706 -1.028402
v 3.051599 -1.138706 -1.138706
v 2.941320 -2.941294 -3.051603
v 1.138679 -1.138706 -3.051603
v 1.138679 -2.941294 -3.051603
v 1.138679 -3.051603 -2.941298
v 1.028401 -2.941294 -2.941298
v 1.138679 -1.028402 -2.941298
v 3.051599 -2.941294 -1.138706
v 2.941320 -2.941294 -1.028402
v 2.941320 -3.051603 -2.941299
v 3.051599 -2.941294 -2.941299
v 2.941320 -3.051603 -1.138706
v 1.028400 -1.138706 -2.941298
vn -0.577400 -0.577300 0.577300
vn -0.707200 0.000000 0.707000
vn 0.577400 0.577300 -0.577300
vn 0.000000 0.707100 0.707100
vn 0.577400 0.577300 0.577300
vn -0.577400 -0.577300 -0.577300
vn 0.707200 0.000000 0.707000
vn 0.000000 0.000000 -1.000000
vn -0.577400 0.577300 -0.577300
vn 0.000000 0.707100 -0.707100
vn -0.707200 -0.707000 -0.000000
vn -0.000000 0.000000 1.000000
vn 0.707200 0.000000 -0.707000
vn -0.577400 0.577300 0.577300
vn 0.707200 -0.707000 0.000000
vn 0.577400 -0.577300 0.577300
vn -1.000000 0.000000 -0.000000
vn -0.707200 0.707000 0.000000
vn 0.707200 0.707000 0.000000
vn 0.000000 -0.707100 -0.707100
vn 0.577400 -0.577300 -0.577300
vn -0.707200 0.000000 -0.707000
vn 0.000000 -1.000000 0.000000
vn -0.000000 -0.707100 0.707100
vn 0.000000 1.000000 0.000000
vn 1.000000 0.000000 0.000000
vn -0.577500 -0.577300 0.577300
vn 0.577500 -0.577300 0.577300
s off
f 1//1 2//1 3//1
f 2//2 4//2 5//2
f 4//2 2//2 1//2
f 6//3 7//3 8//3
f 4//4 9//4 10//4
f 9//4 4//4 11//4
f 9//5 11//5 12//5
f 13//6 14//6 15//6
f 11//7 16//7 12//7
f 16//7 11//7 17//7
f 18//8 19//8 6//8
f 19//8 18//8 15//8
f 19//9 20//9 21//9
f 6//10 21//10 7//10
f 21//10 6//10 19//10
f 2//11 13//11 3//11
f 13//11 2//11 14//11
f 1//12 11//12 4//12
f 11//12 1//12 17//12
f 8//13 18//13 6//13
f 18//13 8//13 22//13
f 10//14 5//14 4//14
f 16//15 23//15 22//15
f 23//15 16//15 24//15
f 16//16 17//16 24//16
f 2//17 20//17 14//17
f 20//17 2//17 5//17
f 20//18 10//18 21//18
f 10//18 20//18 5//18
f 9//19 8//19 7//19
f 8//19 9//19 12//19
f 23//20 15//20 18//20
f 15//20 23//20 13//20
f 22//21 23//21 18//21
f 15//22 20//22 19//22
f 20//22 15//22 14//22
f 3//23 23//23 24//23
f 23//23 3//23 13//23
f 3//24 17//24 1//24
f 17//24 3//24 24//24
f 25//11 26//11 27//11
f 26//11 25//11 28//11
f 29//25 30//25 31//25
f 30//25 29//25 32//25
f 25//2 33//2 34//2
f 33//2 25//2 35//2
f 30//5 36//5 37//5
f 37//26 38//26 39//26
f 38//26 37//26 40//26
f 35//1 25//1 27//1
f 32//14 34//14 33//14
f 26//6 28//6 41//6
f 25//17 42//17 28//17
f 42//17 25//17 34//17
f 33//4 30//4 32//4
f 30//4 33//4 36//4
f 35//12 36//12 33//12
f 36//12 35//12 43//12
f 39//13 44//13 45//13
f 44//13 39//13 38//13
f 40//16 43//16 46//16
f 45//10 29//10 31//10
f 29//10 45//10 47//10
f 42//18 32//18 29//18
f 32//18 42//18 34//18
f 44//8 47//8 45//8
f 47//8 44//8 41//8
f 36//7 40//7 37//7
f 40//7 36//7 43//7
f 27//24 43//24 35//24
f 43//24 27//24 46//24
f 30//19 39//19 31//19
f 39//19 30//19 37//19
f 45//3 31//3 39//3
f 41//22 42//22 47//22
f 42//22 41//22 28//22
f 47//9 42//9 29//9
f 48//20 41//20 44//20
f 41//20 48//20 26//20
f 38//21 48//21 44//21
f 40//15 48//15 38//15
f 48//15 40//15 46//15
f 49//6 50//6 51//6
f 52//2 53//2 54//2
f 53//2 52//2 55//2
f 55//4 56//4 57//4
f 56//4 55//4 58//4
f 56//5 58//5 59//5
f 59//26 60//26 61//26
f 60//26 59//26 62//26
f 52//27 54//27 63//27
f 64//10 65//10 66//10
f 65//10 64//10 67//10
f 53//18 65//18 68//18
f 65//18 53//18 57//18
f 60//21 69//21 70//21
f 65//25 56//25 66//25
f 56//25 65//25 57//25
f 52//12 58//12 55//12
f 58//12 52//12 71//12
f 56//19 61//19 66//19
f 61//19 56//19 59//19
f 61//13 70//13 64//13
f 70//13 61//13 60//13
f 63//23 69//23 72//23
f 69//23 63//23 49//23
f 62//15 69//15 60//15
f 69//15 62//15 72//15
f 67//9 68//9 65//9
f 57//14 53//14 55//14
f 63//11 50//11 49//11
f 50//11 63//11 54//11
f 64//3 66//3 61//3
f 58//7 62//7 59//7
f 62//7 58//7 71//7
f 69//20 51//20 70//20
f 51//20 69//20 49//20
f 54//17 68//17 50//17
f 68//17 54//17 53//17
f 50//22 67//22 51//22
f 67//22 50//22 68//22
f 62//28 71//28 72//28
f 63//24 71//24 52//24
f 71//24 63//24 72//24
f 73//22 74//22 75//22
f 74//22 73//22 76//22
f 77//1 78//1 79//1
f 77//2 80//2 78//2
f 80//2 77//2 81//2
f 82//10 83//10 84//10
f 83//10 82//10 74//10
f 81//4 85//4 86//4
f 85//4 81//4 87//4
f 83//25 85//25 84//25
f 85//25 83//25 86//25
f 79//23 88//23 89//23
f 88//23 79//23 90//23
f 80//18 83//18 76//18
f 83//18 80//18 86//18
f 74//9 76//9 83//9
f 79//11 73//11 90//11
f 73//11 79//11 78//11
f 91//21 88//21 92//21
f 85//19 93//19 84//19
f 93//19 85//19 94//19
f 85//5 87//5 94//5
f 93//13 92//13 82//13
f 92//13 93//13 91//13
f 92//8 74//8 82//8
f 74//8 92//8 75//8
f 86//14 80//14 81//14
f 95//15 88//15 91//15
f 88//15 95//15 89//15
f 87//7 95//7 94//7
f 95//7 87//7 96//7
f 82//3 84//3 93//3
f 90//6 73//6 75//6
f 79//24 96//24 77//24
f 96//24 79//24 89//24
f 88//20 75//20 92//20
f 75//20 88//20 90//20
f 95//16 96//16 89//16
f 97//1 98//1 99//1
f 97//2 100//2 98//2
f 100//2 97//2 101//2
f 102//3 103//3 104//3
f 101//4 105//4 106//4
f 105//4 101//4 107//4
f 105//5 107//5 108//5
f 109//8 110//8 102//8
f 110//8 109//8 111//8
f 112//6 113//6 111//6
f 114//25 105//25 103//25
f 105//25 114//25 106//25
f 107//7 115//7 108//7
f 115//7 107//7 116//7
f 115//15 117//15 118//15
f 117//15 115//15 119//15
f 110//9 120//9 114//9
f 99//11 113//11 112//11
f 113//11 99//11 98//11
f 97//12 107//12 101//12
f 107//12 97//12 116//12
f 104//13 109//13 102//13
f 109//13 104//13 118//13
f 102//10 114//10 103//10
f 114//10 102//10 110//10
f 106//14 100//14 101//14
f 115//16 116//16 119//16
f 100//18 114//18 120//18
f 114//18 100//18 106//18
f 108//26 118//26 104//26
f 118//26 108//26 115//26
f 105//19 104//19 103//19
f 104//19 105//19 108//19
f 117//20 111//20 109//20
f 111//20 117//20 112//20
f 118//21 117//21 109//21
f 113//22 110//22 111//22
f 110//22 113//22 120//22
f 99//23 117//23 119//23
f 117//23 99//23 112//23
f 99//24 116//24 97//24
f 116//24 99//24 119//24
f 8//25 80//25 76//25
f 80//25 8//25 12//25
f 16//23 73//23 78//23
f 73//23 16//23 22//23
f 73//8 8//8 76//8
f 8//8 73//8 22//8
f 16//12 80//12 12//12
f 80//12 16//12 78//12
f 46//26 7//26 48//26
f 7//26 46//26 9//26
f 10//17 26//17 21//17
f 26//17 10//17 27//17
f 7//8 26//8 48//8
f 26//8 7//8 21//8
f 10//12 46//12 27//12
f 46//12 10//12 9//12
f 64//26 96//26 87//26
f 96//26 64//26 70//26
f 81//25 64//25 87//25
f 64//25 81//25 67//25
f 51//23 96//23 70//23
f 96//23 51//23 77//23
f 51//17 81//17 77//17
f 81//17 51//17 67//17
f 93//25 100//25 120//25
f 100//25 93//25 94//25
f 95//23 113//23 98//23
f 113//23 95//23 91//23
f 113//8 93//8 120//8
f 93//8 113//8 91//8
f 95//12 100//12 94//12
f 100//12 95//12 98//12
