# Blender v2.83.0 OBJ File: 'stc29_rabbit.blend'
# www.blender.org
v -0.888529 -2.427717 -0.922553
v -0.796609 -2.519638 -0.922553
v -0.796609 -2.519642 -2.424713
v -0.888529 -2.427722 -2.424713
v -0.796609 -0.925561 -0.830637
v -0.796609 -2.427717 -0.830633
v -0.888529 -0.925561 -0.922557
v -0.902529 -2.427717 -0.922553
v -0.902529 -0.925561 -0.922557
v -0.902529 -2.427722 -2.424713
v -0.994449 -2.427722 -2.516633
v -0.902529 -0.925565 -2.424717
v -0.994449 -2.519642 -2.424713
v -0.994449 -2.519638 -0.922553
v -0.888529 -0.925565 -2.424717
v -0.796609 -0.925566 -2.516638
v -0.796609 -0.833642 -2.424718
v -0.796609 -0.833637 -0.922557
v 0.705551 -0.833642 -2.424718
v 0.705551 -0.833637 -0.922557
v 0.705551 -0.925561 -0.830637
v 0.797472 -0.925561 -0.922557
v 0.797472 -2.427717 -0.922553
v 0.797472 -0.925565 -2.424717
v 0.705551 -2.427717 -0.830633
v 0.705551 -2.519638 -0.922553
v 0.797472 -2.427722 -2.424713
v 0.705551 -2.519642 -2.424713
v 0.705551 -2.427722 -2.516633
v 0.705551 -0.925566 -2.516638
v -0.796609 -2.427722 -2.516633
v -2.496609 -2.519642 -2.424713
v -2.496609 -2.519638 -0.922553
v -0.994449 -2.427717 -0.830633
v -2.496609 -2.427717 -0.830633
v -0.994449 -0.925561 -0.830637
v -0.994449 -2.427717 -0.816633
v -0.994449 -0.925561 -0.816637
v -0.902529 -2.427717 -0.724714
v -0.994449 -2.519637 -0.724713
v -2.496609 -2.427717 -0.816633
v -2.588529 -2.427717 -0.724714
v -2.496609 -0.925561 -0.816637
v -2.496609 -2.519637 -0.724713
v -2.496609 -2.519633 0.777448
v -0.994449 -2.519633 0.777448
v -0.902529 -2.427713 0.777447
v -0.994449 -2.427713 0.869367
v -2.496609 -2.427713 0.869367
v -0.902529 -0.925557 0.777443
v -0.994449 -0.925557 0.869363
v -0.994449 -2.427713 0.883367
v -0.994449 -0.925556 0.883363
v -0.902529 -2.427712 0.975287
v -0.994449 -2.519633 0.975287
v -2.496609 -2.427713 0.883367
v -2.588529 -2.427712 0.975287
v -2.496609 -0.925556 0.883363
v -2.496609 -2.519633 0.975287
v -2.496609 -2.519629 2.477468
v -0.994449 -2.519629 2.477468
v -0.902529 -2.427708 2.477468
v -0.994449 -2.427708 2.569367
v -2.496609 -2.427708 2.569367
v -2.496609 -0.925552 2.569363
v -0.994449 -0.925552 2.569363
v -0.902529 -0.925552 2.477463
v -0.902529 -0.925556 0.975283
v -0.994449 -0.833628 2.477463
v -0.994449 -0.833632 0.975282
v -2.496609 -0.833628 2.477463
v -2.496609 -0.833632 0.975283
v -2.588529 -0.925556 0.975283
v -2.588529 -0.925552 2.477463
v -2.588529 -2.427708 2.477468
v -2.496609 -0.925557 0.869363
v -2.588529 -0.925557 0.777443
v -2.496609 -0.833633 0.777443
v -0.994449 -0.833633 0.777443
v -0.994449 -0.833637 -0.724718
v -0.902529 -0.925561 -0.724718
v -2.496609 -0.833637 -0.724718
v -2.588529 -0.925561 -0.724718
v -2.588529 -2.427713 0.777447
v -2.496609 -0.925561 -0.830637
v -2.588529 -0.925561 -0.922557
v -2.496609 -0.833637 -0.922557
v -0.994449 -0.833637 -0.922557
v -0.994449 -0.833642 -2.424718
v -0.994449 -0.925566 -2.516638
v -2.496609 -0.833642 -2.424718
v -2.496609 -0.925566 -2.516638
v -2.588529 -0.925565 -2.424717
v -2.588529 -2.427722 -2.424713
v -2.496609 -2.427722 -2.516633
v -2.588529 -2.427717 -0.922553
vn -0.5773 -0.5773 0.5774
vn -0.7071 -0.7071 0.0000
vn 0.0000 -1.0000 0.0000
vn -0.7071 0.0000 0.7071
vn 0.0000 0.0000 1.0000
vn 0.5774 -0.5774 -0.5773
vn 0.7071 -0.0000 -0.7071
vn 0.0000 -0.0000 -1.0000
vn 0.7071 -0.7071 0.0000
vn -0.5774 0.5773 -0.5774
vn -0.7071 -0.0000 -0.7071
vn -0.7071 0.7071 -0.0000
vn 0.0000 1.0000 -0.0000
vn 0.0000 0.7071 0.7071
vn -0.5774 0.5773 0.5774
vn 0.7071 0.7071 -0.0000
vn 0.5774 0.5773 0.5774
vn 0.7071 0.0000 0.7071
vn 1.0000 0.0000 0.0000
vn 0.0000 -0.7071 0.7071
vn 0.5773 -0.5773 0.5774
vn 0.0000 -0.7071 -0.7071
vn -0.5774 -0.5774 -0.5773
vn 0.5774 0.5773 -0.5774
vn 0.0000 0.7071 -0.7071
vn 0.5773 -0.5774 -0.5774
vn -0.5773 -0.5774 -0.5774
vn -1.0000 0.0000 0.0000
vn 0.5774 -0.5773 0.5774
vn 0.0000 -0.7070 0.7072
vn 0.7070 0.0000 0.7072
vn 0.5773 0.5773 0.5774
vn -0.7070 0.0000 0.7072
vn -0.5773 0.5773 0.5774
vn 0.0000 0.7070 0.7072
vn -0.5774 -0.5773 0.5774
s off
f 1//1 2//1 6//1
f 1//2 3//2 2//2
f 3//2 1//2 4//2
f 1//3 10//3 4//3
f 1//4 5//4 7//4
f 5//4 1//4 6//4
f 9//5 1//5 7//5
f 10//3 1//3 8//3
f 1//5 9//5 8//5
f 13//6 11//6 10//6
f 11//7 12//7 10//7
f 15//8 10//8 12//8
f 10//9 14//9 13//9
f 14//9 10//9 8//9
f 10//8 15//8 4//8
f 17//10 16//10 15//10
f 16//11 4//11 15//11
f 15//12 18//12 17//12
f 18//12 15//12 7//12
f 15//13 9//13 7//13
f 9//13 15//13 12//13
f 18//13 19//13 17//13
f 19//13 18//13 20//13
f 5//14 20//14 18//14
f 5//15 18//15 7//15
f 22//16 19//16 20//16
f 20//14 5//14 21//14
f 21//17 22//17 20//17
f 22//18 25//18 23//18
f 23//19 24//19 22//19
f 19//16 22//16 24//16
f 25//18 22//18 21//18
f 25//20 2//20 26//20
f 26//21 23//21 25//21
f 2//20 25//20 6//20
f 25//5 5//5 6//5
f 5//5 25//5 21//5
f 26//9 27//9 23//9
f 27//9 26//9 28//9
f 26//3 3//3 28//3
f 3//3 26//3 2//3
f 28//6 29//6 27//6
f 3//22 29//22 28//22
f 29//7 24//7 27//7
f 24//7 29//7 30//7
f 31//8 30//8 29//8
f 29//22 3//22 31//22
f 30//8 31//8 16//8
f 4//11 16//11 31//11
f 4//23 31//23 3//23
f 24//24 30//24 19//24
f 16//25 19//25 30//25
f 24//19 23//19 27//19
f 19//25 16//25 17//25
f 14//3 32//3 13//3
f 14//21 8//21 34//21
f 32//3 14//3 33//3
f 34//20 33//20 14//20
f 33//20 34//20 35//20
f 37//3 35//3 34//3
f 9//18 34//18 8//18
f 34//18 9//18 36//18
f 36//19 37//19 34//19
f 37//19 36//19 38//19
f 38//7 39//7 37//7
f 40//26 37//26 39//26
f 40//22 41//22 37//22
f 35//3 37//3 41//3
f 42//27 41//27 44//27
f 42//11 43//11 41//11
f 43//28 35//28 41//28
f 41//22 40//22 44//22
f 44//3 46//3 45//3
f 45//2 42//2 44//2
f 46//3 44//3 40//3
f 46//9 39//9 47//9
f 39//9 46//9 40//9
f 46//29 47//29 48//29
f 48//20 45//20 46//20
f 45//20 48//20 49//20
f 52//3 49//3 48//3
f 50//18 48//18 47//18
f 48//18 50//18 51//18
f 51//19 52//19 48//19
f 52//19 51//19 53//19
f 53//7 54//7 52//7
f 55//26 52//26 54//26
f 55//22 56//22 52//22
f 49//3 52//3 56//3
f 57//23 56//23 59//23
f 57//11 58//11 56//11
f 58//28 49//28 56//28
f 56//22 55//22 59//22
f 59//3 61//3 60//3
f 60//2 57//2 59//2
f 61//3 59//3 55//3
f 61//9 54//9 62//9
f 54//9 61//9 55//9
f 61//21 62//21 63//21
f 63//30 60//30 61//30
f 60//30 63//30 64//30
f 63//5 65//5 64//5
f 65//5 63//5 66//5
f 63//31 67//31 66//31
f 67//31 63//31 62//31
f 62//19 68//19 67//19
f 70//16 67//16 68//16
f 66//32 67//32 69//32
f 67//16 70//16 69//16
f 68//24 53//24 70//24
f 53//25 72//25 70//25
f 70//13 71//13 69//13
f 71//13 70//13 72//13
f 72//12 74//12 71//12
f 72//25 53//25 58//25
f 72//10 58//10 73//10
f 74//12 72//12 73//12
f 74//33 64//33 65//33
f 65//34 71//34 74//34
f 64//33 74//33 75//33
f 74//28 57//28 75//28
f 57//28 74//28 73//28
f 57//2 60//2 75//2
f 75//1 60//1 64//1
f 58//11 57//11 73//11
f 65//35 69//35 71//35
f 69//35 65//35 66//35
f 54//7 53//7 68//7
f 68//19 62//19 54//19
f 51//13 58//13 53//13
f 58//13 51//13 76//13
f 49//28 58//28 76//28
f 77//4 49//4 76//4
f 76//15 78//15 77//15
f 76//14 79//14 78//14
f 79//14 76//14 51//14
f 50//16 80//16 79//16
f 80//13 78//13 79//13
f 51//17 50//17 79//17
f 80//16 50//16 81//16
f 81//24 38//24 80//24
f 38//25 82//25 80//25
f 78//13 80//13 82//13
f 82//12 77//12 78//12
f 82//25 38//25 43//25
f 82//10 43//10 83//10
f 77//12 82//12 83//12
f 43//11 42//11 83//11
f 42//28 77//28 83//28
f 39//7 38//7 81//7
f 81//19 47//19 39//19
f 47//19 81//19 50//19
f 49//4 77//4 84//4
f 77//28 42//28 84//28
f 42//2 45//2 84//2
f 84//36 45//36 49//36
f 36//13 43//13 38//13
f 43//13 36//13 85//13
f 35//28 43//28 85//28
f 86//4 35//4 85//4
f 85//15 87//15 86//15
f 85//14 88//14 87//14
f 88//14 85//14 36//14
f 9//16 89//16 88//16
f 89//13 87//13 88//13
f 36//17 9//17 88//17
f 89//16 9//16 12//16
f 12//24 90//24 89//24
f 92//25 89//25 90//25
f 87//13 89//13 91//13
f 89//25 92//25 91//25
f 91//10 92//10 93//10
f 90//8 95//8 92//8
f 92//11 94//11 93//11
f 94//11 92//11 95//11
f 94//23 95//23 32//23
f 11//22 32//22 95//22
f 95//8 90//8 11//8
f 33//2 94//2 32//2
f 86//28 94//28 96//28
f 94//2 33//2 96//2
f 94//28 86//28 93//28
f 96//1 33//1 35//1
f 35//4 86//4 96//4
f 86//12 91//12 93//12
f 91//12 86//12 87//12
f 12//7 11//7 90//7
f 32//22 11//22 13//22
