# Blender v2.76 (sub 0) OBJ File: 'coffin4_done.blend'
# www.blender.org
o Coffin.Half-Hour.Pieces-Smaller.000_Coffin.Half-Hour.Pieces-Smaller.006
v -1.138704 -2.941294 1.011597
v -2.941297 -3.051598 0.901293
v -1.138704 -3.051598 0.901293
v -2.941297 -2.941294 1.011597
v -2.941297 -1.138707 -1.011603
v -3.051601 -2.941294 -0.901299
v -3.051600 -1.138707 -0.901300
v -2.941297 -2.941294 -1.011603
v -1.138704 -3.051598 -0.901299
v -2.941297 -3.051598 -0.901299
v -1.138704 -2.941294 -1.011603
v -1.028401 -2.941294 -0.901299
v -1.028401 -1.138707 0.901293
v -1.028401 -2.941294 0.901293
v -1.028401 -1.138707 -0.901299
v -2.941297 -1.028398 -0.901300
v -1.138704 -1.028398 0.901293
v -1.138704 -1.028398 -0.901299
v -2.941297 -1.028398 0.901293
v -1.138704 -1.138707 1.011597
v -3.051600 -2.941294 0.901293
v -3.051601 -1.138707 0.901293
v -1.138704 -1.138707 -1.011603
v -2.941297 -1.138707 1.011597
v -2.941297 -2.941293 3.051597
v -3.051601 -2.941293 2.941294
v -2.941297 -3.051598 2.941294
v -2.941297 -1.138707 1.028397
v -3.051601 -1.138707 1.138701
v -2.941297 -1.028398 1.138701
v -3.051600 -2.941294 1.138701
v -2.941297 -2.941294 1.028397
v -1.138704 -3.051598 1.138701
v -2.941297 -3.051598 1.138701
v -1.138704 -2.941294 1.028397
v -1.138704 -3.051598 2.941294
v -1.138704 -1.028397 2.941294
v -1.138704 -1.028398 1.138701
v -2.941297 -1.028398 2.941293
v -1.138704 -2.941294 3.051598
v -3.051601 -1.138706 2.941293
v -1.138704 -1.138706 3.051597
v -2.941297 -1.138706 3.051597
v -1.028401 -1.138706 2.941294
v -1.028401 -2.941294 1.138701
v -1.028401 -2.941294 2.941294
v -1.028401 -1.138707 1.138701
v -1.138704 -1.138707 1.028397
v -1.011601 -1.138706 2.941294
v -0.901297 -2.941294 3.051598
v -0.901297 -1.138706 3.051597
v -1.011601 -2.941294 2.941294
v -0.901297 -1.138707 1.028397
v -1.011601 -1.138707 1.138701
v -0.901297 -1.028398 1.138701
v -0.901297 -2.941294 1.028397
v -1.011601 -2.941294 1.138701
v 0.901296 -3.051598 2.941294
v 0.901296 -2.941294 3.051598
v -0.901297 -3.051598 2.941294
v 0.901296 -3.051598 1.138701
v -0.901297 -3.051598 1.138701
v 0.901296 -2.941294 1.028397
v 0.901296 -1.028397 2.941293
v 0.901296 -1.028398 1.138701
v -0.901297 -1.028397 2.941294
v 1.011600 -1.138706 2.941293
v 0.901296 -1.138706 3.051597
v 1.011600 -2.941294 1.138701
v 1.011600 -2.941294 2.941294
v 0.901296 -1.138707 1.028397
v 1.011600 -1.138707 1.138701
v 1.028400 -1.138706 2.941293
v 1.138704 -2.941294 3.051598
v 1.138703 -1.138706 3.051597
v 1.028400 -2.941294 2.941294
v 1.138704 -1.138707 1.028397
v 1.028400 -1.138707 1.138701
v 1.138704 -1.028398 1.138701
v 1.138704 -2.941294 1.028397
v 1.028400 -2.941294 1.138701
v 2.941320 -3.051598 2.941294
v 2.941320 -2.941293 3.051597
v 1.138704 -3.051598 2.941294
v 2.941321 -3.051598 1.138701
v 1.138704 -3.051598 1.138701
v 2.941321 -2.941294 1.028397
v 2.941320 -1.028398 2.941293
v 2.941320 -1.028398 1.138701
v 1.138703 -1.028397 2.941293
v 3.051600 -2.941294 1.138701
v 3.051600 -1.138706 2.941293
v 3.051600 -2.941294 2.941294
v 3.051600 -1.138707 1.138701
v 2.941320 -1.138706 3.051597
v 2.941320 -1.138707 1.028397
vn 0.000000 -0.707100 0.707100
vn -0.707100 0.000000 -0.707100
vn 0.000000 -0.707100 -0.707100
vn 0.577400 -0.577300 -0.577400
vn 1.000000 0.000000 0.000000
vn -0.577400 0.577300 -0.577400
vn 0.000000 1.000000 -0.000000
vn 0.000000 -1.000000 0.000000
vn 0.577400 0.577300 0.577400
vn -1.000000 -0.000000 -0.000000
vn 0.000000 -0.000000 -1.000000
vn 0.707100 -0.707100 0.000000
vn 0.707100 0.000000 0.707100
vn -0.707100 0.707100 -0.000000
vn -0.707100 0.000000 0.707100
vn -0.577400 -0.577300 0.577400
vn 0.707100 -0.000000 -0.707100
vn 0.577400 0.577300 -0.577400
vn 0.000000 0.707100 -0.707100
vn -0.707100 -0.707100 0.000000
vn -0.577400 -0.577400 -0.577400
vn 0.577400 -0.577300 0.577400
vn -0.577400 0.577300 0.577400
vn 0.707100 0.707100 -0.000000
vn 0.000000 0.707100 0.707100
vn -0.000000 0.000000 1.000000
vn -0.577400 -0.577300 -0.577400
vn -0.577400 -0.577300 -0.577300
vn 0.577400 -0.577300 0.577300
vn 0.577400 0.577300 0.577300
vn 0.707200 -0.707000 0.000000
vn 0.577400 -0.577300 -0.577300
vn 0.707200 0.000000 0.707000
vn 0.707200 0.707000 0.000000
vn 0.707200 -0.000000 -0.707000
vn 0.577400 0.577300 -0.577300
s off
f 1//1 2//1 3//1
f 2//1 1//1 4//1
f 5//2 6//2 7//2
f 6//2 5//2 8//2
f 8//3 9//3 10//3
f 9//3 8//3 11//3
f 9//4 11//4 12//4
f 12//5 13//5 14//5
f 13//5 12//5 15//5
f 5//6 7//6 16//6
f 16//7 17//7 18//7
f 17//7 16//7 19//7
f 2//8 9//8 3//8
f 9//8 2//8 10//8
f 13//9 17//9 20//9
f 7//10 21//10 22//10
f 21//10 7//10 6//10
f 5//11 11//11 8//11
f 11//11 5//11 23//11
f 3//12 12//12 14//12
f 12//12 3//12 9//12
f 13//13 1//13 14//13
f 1//13 13//13 20//13
f 16//14 22//14 19//14
f 22//14 16//14 7//14
f 22//15 4//15 24//15
f 4//15 22//15 21//15
f 4//16 21//16 2//16
f 23//17 12//17 11//17
f 12//17 23//17 15//17
f 15//18 23//18 18//18
f 16//19 23//19 5//19
f 23//19 16//19 18//19
f 6//20 2//20 21//20
f 2//20 6//20 10//20
f 10//21 6//21 8//21
f 1//22 3//22 14//22
f 19//23 22//23 24//23
f 18//24 13//24 15//24
f 13//24 18//24 17//24
f 17//25 24//25 20//25
f 24//25 17//25 19//25
f 25//16 26//16 27//16
f 28//6 29//6 30//6
f 28//2 31//2 29//2
f 31//2 28//2 32//2
f 32//3 33//3 34//3
f 33//3 32//3 35//3
f 27//8 33//8 36//8
f 33//8 27//8 34//8
f 30//7 37//7 38//7
f 37//7 30//7 39//7
f 25//1 36//1 40//1
f 36//1 25//1 27//1
f 30//14 41//14 39//14
f 41//14 30//14 29//14
f 31//20 27//20 26//20
f 27//20 31//20 34//20
f 42//26 25//26 40//26
f 25//26 42//26 43//26
f 44//9 37//9 42//9
f 36//12 45//12 46//12
f 45//12 36//12 33//12
f 33//4 35//4 45//4
f 46//13 42//13 40//13
f 42//13 46//13 44//13
f 41//15 25//15 43//15
f 25//15 41//15 26//15
f 34//27 31//27 32//27
f 38//24 44//24 47//24
f 44//24 38//24 37//24
f 29//10 26//10 41//10
f 26//10 29//10 31//10
f 48//17 45//17 35//17
f 45//17 48//17 47//17
f 40//22 36//22 46//22
f 39//23 41//23 43//23
f 39//25 42//25 37//25
f 42//25 39//25 43//25
f 47//18 48//18 38//18
f 30//19 48//19 28//19
f 48//19 30//19 38//19
f 49//15 50//15 51//15
f 50//15 49//15 52//15
f 53//6 54//6 55//6
f 54//2 56//2 57//2
f 56//2 54//2 53//2
f 50//1 58//1 59//1
f 58//1 50//1 60//1
f 56//3 61//3 62//3
f 61//3 56//3 63//3
f 60//8 61//8 58//8
f 61//8 60//8 62//8
f 55//7 64//7 65//7
f 64//7 55//7 66//7
f 52//20 62//20 60//20
f 62//20 52//20 57//20
f 50//16 52//16 60//16
f 54//14 66//14 55//14
f 66//14 54//14 49//14
f 67//9 64//9 68//9
f 58//12 69//12 70//12
f 69//12 58//12 61//12
f 53//11 63//11 56//11
f 63//11 53//11 71//11
f 61//4 63//4 69//4
f 70//13 68//13 59//13
f 68//13 70//13 67//13
f 68//26 50//26 59//26
f 50//26 68//26 51//26
f 62//28 57//28 56//28
f 65//24 67//24 72//24
f 67//24 65//24 64//24
f 71//17 69//17 63//17
f 69//17 71//17 72//17
f 59//29 58//29 70//29
f 66//23 49//23 51//23
f 66//25 68//25 64//25
f 68//25 66//25 51//25
f 72//18 71//18 65//18
f 55//19 71//19 53//19
f 71//19 55//19 65//19
f 73//15 74//15 75//15
f 74//15 73//15 76//15
f 77//6 78//6 79//6
f 78//2 80//2 81//2
f 80//2 78//2 77//2
f 74//1 82//1 83//1
f 82//1 74//1 84//1
f 80//3 85//3 86//3
f 85//3 80//3 87//3
f 84//8 85//8 82//8
f 85//8 84//8 86//8
f 79//7 88//7 89//7
f 88//7 79//7 90//7
f 91//5 92//5 93//5
f 92//5 91//5 94//5
f 76//20 86//20 84//20
f 86//20 76//20 81//20
f 74//16 76//16 84//16
f 78//14 90//14 79//14
f 90//14 78//14 73//14
f 92//30 88//30 95//30
f 82//31 91//31 93//31
f 91//31 82//31 85//31
f 77//11 87//11 80//11
f 87//11 77//11 96//11
f 85//32 87//32 91//32
f 93//33 95//33 83//33
f 95//33 93//33 92//33
f 95//26 74//26 83//26
f 74//26 95//26 75//26
f 86//27 81//27 80//27
f 89//34 92//34 94//34
f 92//34 89//34 88//34
f 96//35 91//35 87//35
f 91//35 96//35 94//35
f 83//29 82//29 93//29
f 90//23 73//23 75//23
f 90//25 95//25 88//25
f 95//25 90//25 75//25
f 94//36 96//36 89//36
f 79//19 96//19 77//19
f 96//19 79//19 89//19
f 1//5 48//5 35//5
f 48//5 1//5 20//5
f 32//8 1//8 35//8
f 1//8 32//8 4//8
f 24//7 48//7 20//7
f 48//7 24//7 28//7
f 24//10 32//10 28//10
f 32//10 24//10 4//10
f 46//8 57//8 52//8
f 57//8 46//8 45//8
f 47//7 49//7 54//7
f 49//7 47//7 44//7
f 49//26 46//26 52//26
f 46//26 49//26 44//26
f 47//11 57//11 45//11
f 57//11 47//11 54//11
f 70//8 81//8 76//8
f 81//8 70//8 69//8
f 72//7 73//7 78//7
f 73//7 72//7 67//7
f 73//26 70//26 76//26
f 70//26 73//26 67//26
f 72//11 81//11 69//11
f 81//11 72//11 78//11
