# Blender v2.76 (sub 0) OBJ File: 'coffin4_done.blend'
# www.blender.org
o Coffin.Half-Hour.Pieces-Smaller.005_Coffin.Half-Hour.Pieces-Smaller.010
v -1.138704 1.028398 -1.138706
v -1.028400 1.138702 -2.941293
v -1.028400 1.138702 -1.138706
v -1.138704 1.028398 -2.941293
v -2.941291 3.051598 -2.941293
v -1.138704 2.941290 -3.051602
v -2.941291 2.941289 -3.051602
v -1.138704 3.051599 -2.941293
v -1.028400 2.941290 -1.138706
v -1.028400 2.941290 -2.941293
v -1.138704 3.051599 -1.138706
v -1.138704 2.941290 -1.028402
v -3.051600 2.941289 -2.941293
v -3.051600 1.138702 -1.138706
v -3.051600 2.941289 -1.138706
v -3.051600 1.138702 -2.941293
v -2.941291 1.028398 -1.138706
v -2.941291 1.028398 -2.941293
v -2.941291 1.138702 -1.028402
v -1.138704 1.138702 -3.051602
v -2.941291 1.138702 -3.051602
v -2.941291 3.051598 -1.138706
v -1.138704 1.138702 -1.028402
v -2.941291 2.941289 -1.028402
v -3.051600 1.138702 -0.901298
v -2.941291 1.138702 -1.011602
v -2.941291 1.028398 -0.901298
v -2.941291 3.051598 -0.901298
v -1.138704 2.941290 -1.011602
v -2.941291 2.941289 -1.011602
v -1.138704 3.051599 -0.901298
v -1.028400 2.941290 0.901294
v -1.028400 2.941290 -0.901298
v -1.138704 3.051599 0.901294
v -1.138704 2.941290 1.011598
v -3.051600 2.941289 -0.901298
v -1.138704 1.028398 0.901294
v -1.028400 1.138702 -0.901298
v -1.028400 1.138702 0.901294
v -1.138704 1.028398 -0.901298
v -1.138704 1.138702 -1.011602
v -2.941291 1.138702 1.011598
v -3.051600 1.138702 0.901294
v -2.941291 1.028398 0.901294
v -2.941291 3.051598 0.901294
v -1.138704 1.138702 1.011598
v -3.051600 2.941289 0.901294
v -2.941291 2.941289 1.011598
v -2.941291 1.011598 -0.901298
v -2.941291 0.901294 -1.011602
v -3.051600 0.901294 -0.901298
v -1.138704 0.901294 -1.011602
v -1.138704 1.011598 -0.901298
v -1.138704 -1.011602 0.901294
v -1.028399 -0.901298 0.901294
v -1.138704 -0.901298 1.011598
v -1.028400 0.901294 0.901294
v -1.028400 0.901294 -0.901298
v -1.138704 1.011598 0.901294
v -1.138704 0.901294 1.011598
v -2.941291 -1.011602 0.901294
v -1.138704 -1.011602 -0.901298
v -2.941291 -1.011602 -0.901298
v -3.051600 -0.901298 -0.901298
v -2.941291 -0.901298 -1.011602
v -2.941291 0.901294 1.011598
v -2.941291 1.011598 0.901294
v -3.051600 -0.901298 0.901294
v -2.941291 -0.901298 1.011598
v -3.051600 0.901294 0.901294
v -1.138704 -0.901298 -1.011602
v -1.028400 -0.901298 -0.901298
v -1.011600 0.901294 -0.901298
v -0.901296 -0.901298 -1.011602
v -1.011600 -0.901298 -0.901298
v -0.901296 0.901294 -1.011602
v 1.011601 -0.901298 -0.901298
v 1.011601 0.901294 0.901294
v 1.011601 -0.901298 0.901294
v 1.011601 0.901294 -0.901298
v -0.901296 1.011598 -0.901298
v 0.901297 0.901294 -1.011602
v 0.901297 1.011598 -0.901298
v 0.901297 -1.011602 0.901294
v 0.901297 -1.011602 -0.901298
v 0.901296 1.011598 0.901294
v 0.901296 0.901294 1.011598
v -0.901296 -0.901298 1.011598
v 0.901297 -0.901298 1.011598
v -0.901296 0.901294 1.011598
v -0.901296 -1.011602 -0.901298
v 0.901297 -0.901298 -1.011602
v -0.901296 1.011598 0.901294
v -0.901296 -1.011602 0.901294
v -1.011600 0.901294 0.901294
v -1.011600 -0.901298 0.901294
v -3.051600 1.138702 1.138702
v -2.941291 1.138702 1.028398
v -2.941291 1.028398 1.138702
v -2.941291 3.051598 1.138702
v -1.138704 2.941290 1.028398
v -2.941291 2.941289 1.028398
v -1.138704 3.051599 1.138702
v -1.028400 2.941290 2.941295
v -1.028400 2.941290 1.138702
v -1.138704 3.051599 2.941295
v -1.138704 2.941290 3.051599
v -2.941291 1.138702 3.051599
v -1.138704 1.138702 3.051599
v -2.941291 2.941289 3.051599
v -1.028400 1.138702 2.941295
v -3.051600 2.941289 1.138702
v -2.941291 3.051598 2.941294
v -2.941291 1.028398 2.941294
v -1.138704 1.028398 1.138702
v -1.138704 1.028398 2.941295
v -3.051600 1.138702 2.941294
v -3.051600 2.941289 2.941294
v -1.138704 1.138702 1.028398
v -1.028400 1.138702 1.138702
vn 0.707100 -0.707100 -0.000000
vn 0.000000 0.707100 -0.707100
vn 0.707100 0.707100 -0.000000
vn 0.577400 0.577300 0.577400
vn -0.577400 0.577300 -0.577300
vn -1.000000 0.000000 -0.000000
vn 1.000000 0.000000 -0.000000
vn 0.000000 -1.000000 0.000000
vn -0.577300 -0.577400 0.577400
vn 0.000000 0.000000 -1.000000
vn -0.000000 1.000000 0.000000
vn 0.707100 0.000000 0.707100
vn 0.000000 -0.707100 0.707100
vn -0.707100 -0.000000 -0.707100
vn 0.000000 -0.707100 -0.707100
vn 0.577400 -0.577400 -0.577300
vn -0.000000 0.707100 0.707100
vn -0.577300 0.577300 0.577400
vn -0.707100 0.707100 0.000000
vn 0.707100 0.000000 -0.707100
vn 0.577400 0.577300 -0.577300
vn 0.577400 -0.577300 0.577400
vn -0.577300 -0.577400 -0.577300
vn -0.707100 0.000000 0.707100
vn -0.707100 -0.707100 0.000000
vn -0.577300 -0.577400 -0.577400
vn -0.577300 0.577300 -0.577400
vn 0.577300 -0.577400 -0.577400
vn 0.577400 0.577300 -0.577400
vn 0.577300 -0.577300 0.577400
vn -0.577300 0.577400 -0.577400
vn 0.577300 -0.577400 0.577400
vn 0.577300 0.577300 0.577400
vn 0.577300 -0.577400 -0.577300
vn 0.577400 0.577400 -0.577300
vn -0.577300 0.577400 0.577400
vn -0.000000 -0.000000 1.000000
vn -0.577400 0.577400 -0.577300
vn -0.577400 -0.577400 -0.577300
vn 0.577400 0.577400 -0.577400
vn -0.577400 0.577300 0.577400
vn -0.577400 -0.577400 0.577400
s off
f 1//1 2//1 3//1
f 2//1 1//1 4//1
f 5//2 6//2 7//2
f 6//2 5//2 8//2
f 8//3 9//3 10//3
f 9//3 8//3 11//3
f 9//4 11//4 12//4
f 5//5 7//5 13//5
f 13//6 14//6 15//6
f 14//6 13//6 16//6
f 2//7 9//7 3//7
f 9//7 2//7 10//7
f 17//8 4//8 1//8
f 4//8 17//8 18//8
f 19//9 14//9 17//9
f 7//10 20//10 21//10
f 20//10 7//10 6//10
f 5//11 11//11 8//11
f 11//11 5//11 22//11
f 9//12 23//12 3//12
f 23//12 9//12 12//12
f 23//13 17//13 1//13
f 17//13 23//13 19//13
f 13//14 21//14 16//14
f 21//14 13//14 7//14
f 21//15 4//15 18//15
f 4//15 21//15 20//15
f 4//16 20//16 2//16
f 11//17 24//17 12//17
f 24//17 11//17 22//17
f 24//18 22//18 15//18
f 13//19 22//19 5//19
f 22//19 13//19 15//19
f 6//20 2//20 20//20
f 2//20 6//20 10//20
f 10//21 6//21 8//21
f 1//22 3//22 23//22
f 16//23 21//23 18//23
f 24//24 14//24 19//24
f 14//24 24//24 15//24
f 14//25 18//25 17//25
f 18//25 14//25 16//25
f 25//26 26//26 27//26
f 28//2 29//2 30//2
f 29//2 28//2 31//2
f 31//3 32//3 33//3
f 32//3 31//3 34//3
f 32//4 34//4 35//4
f 28//27 30//27 36//27
f 37//1 38//1 39//1
f 38//1 37//1 40//1
f 29//20 38//20 41//20
f 38//20 29//20 33//20
f 42//9 43//9 44//9
f 38//7 32//7 39//7
f 32//7 38//7 33//7
f 28//11 34//11 31//11
f 34//11 28//11 45//11
f 32//12 46//12 39//12
f 46//12 32//12 35//12
f 46//13 44//13 37//13
f 44//13 46//13 42//13
f 36//6 43//6 47//6
f 43//6 36//6 25//6
f 48//24 43//24 42//24
f 43//24 48//24 47//24
f 40//28 41//28 38//28
f 33//29 29//29 31//29
f 36//14 26//14 25//14
f 26//14 36//14 30//14
f 37//30 39//30 46//30
f 34//17 48//17 35//17
f 48//17 34//17 45//17
f 43//25 27//25 44//25
f 27//25 43//25 25//25
f 26//15 40//15 27//15
f 40//15 26//15 41//15
f 48//18 45//18 47//18
f 36//19 45//19 28//19
f 45//19 36//19 47//19
f 49//31 50//31 51//31
f 49//2 52//2 50//2
f 52//2 49//2 53//2
f 54//32 55//32 56//32
f 53//3 57//3 58//3
f 57//3 53//3 59//3
f 57//33 59//33 60//33
f 61//8 62//8 54//8
f 62//8 61//8 63//8
f 64//26 65//26 63//26
f 59//17 66//17 60//17
f 66//17 59//17 67//17
f 66//24 68//24 69//24
f 68//24 66//24 70//24
f 62//34 71//34 72//34
f 51//14 65//14 64//14
f 65//14 51//14 50//14
f 56//13 61//13 54//13
f 61//13 56//13 69//13
f 54//1 72//1 55//1
f 72//1 54//1 62//1
f 58//35 52//35 53//35
f 66//36 67//36 70//36
f 50//10 71//10 65//10
f 71//10 50//10 52//10
f 52//20 72//20 71//20
f 72//20 52//20 58//20
f 60//37 69//37 56//37
f 69//37 60//37 66//37
f 57//12 56//12 55//12
f 56//12 57//12 60//12
f 68//25 63//25 61//25
f 63//25 68//25 64//25
f 69//9 68//9 61//9
f 65//15 62//15 63//15
f 62//15 65//15 71//15
f 51//6 68//6 70//6
f 68//6 51//6 64//6
f 51//19 67//19 49//19
f 67//19 51//19 70//19
f 73//14 74//14 75//14
f 74//14 73//14 76//14
f 77//7 78//7 79//7
f 78//7 77//7 80//7
f 81//2 82//2 76//2
f 82//2 81//2 83//2
f 84//1 77//1 79//1
f 77//1 84//1 85//1
f 78//4 86//4 87//4
f 87//37 88//37 89//37
f 88//37 87//37 90//37
f 81//38 76//38 73//38
f 75//39 74//39 91//39
f 76//10 92//10 74//10
f 92//10 76//10 82//10
f 80//40 82//40 83//40
f 81//11 86//11 83//11
f 86//11 81//11 93//11
f 89//13 94//13 84//13
f 94//13 89//13 88//13
f 90//41 93//41 95//41
f 83//3 78//3 80//3
f 78//3 83//3 86//3
f 82//20 77//20 92//20
f 77//20 82//20 80//20
f 94//8 85//8 84//8
f 85//8 94//8 91//8
f 86//17 90//17 87//17
f 90//17 86//17 93//17
f 73//19 93//19 81//19
f 93//19 73//19 95//19
f 78//12 89//12 79//12
f 89//12 78//12 87//12
f 84//32 79//32 89//32
f 74//15 85//15 91//15
f 85//15 74//15 92//15
f 96//25 91//25 94//25
f 91//25 96//25 75//25
f 88//42 96//42 94//42
f 85//34 92//34 77//34
f 90//24 96//24 88//24
f 96//24 90//24 95//24
f 97//26 98//26 99//26
f 100//2 101//2 102//2
f 101//2 100//2 103//2
f 103//3 104//3 105//3
f 104//3 103//3 106//3
f 107//37 108//37 109//37
f 108//37 107//37 110//37
f 104//12 109//12 111//12
f 109//12 104//12 107//12
f 100//27 102//27 112//27
f 104//4 106//4 107//4
f 106//17 110//17 107//17
f 110//17 106//17 113//17
f 112//14 98//14 97//14
f 98//14 112//14 102//14
f 114//8 115//8 116//8
f 115//8 114//8 99//8
f 110//24 117//24 108//24
f 117//24 110//24 118//24
f 116//32 111//32 109//32
f 100//11 106//11 103//11
f 106//11 100//11 113//11
f 109//13 114//13 116//13
f 114//13 109//13 108//13
f 110//18 113//18 118//18
f 105//29 101//29 103//29
f 115//28 119//28 120//28
f 116//1 120//1 111//1
f 120//1 116//1 115//1
f 120//7 104//7 111//7
f 104//7 120//7 105//7
f 117//25 99//25 114//25
f 99//25 117//25 97//25
f 108//9 117//9 114//9
f 101//20 120//20 119//20
f 120//20 101//20 105//20
f 98//15 115//15 99//15
f 115//15 98//15 119//15
f 112//6 117//6 118//6
f 117//6 112//6 97//6
f 112//19 113//19 100//19
f 113//19 112//19 118//19
f 46//7 101//7 119//7
f 101//7 46//7 35//7
f 48//6 98//6 102//6
f 98//6 48//6 42//6
f 98//8 46//8 119//8
f 46//8 98//8 42//8
f 48//11 101//11 35//11
f 101//11 48//11 102//11
f 37//37 67//37 59//37
f 67//37 37//37 44//37
f 53//7 37//7 59//7
f 37//7 53//7 40//7
f 27//6 67//6 44//6
f 67//6 27//6 49//6
f 27//10 53//10 49//10
f 53//10 27//10 40//10
f 23//7 29//7 41//7
f 29//7 23//7 12//7
f 24//6 26//6 30//6
f 26//6 24//6 19//6
f 26//8 23//8 41//8
f 23//8 26//8 19//8
f 24//11 29//11 12//11
f 29//11 24//11 30//11
f 95//37 55//37 96//37
f 55//37 95//37 57//37
f 58//10 75//10 72//10
f 75//10 58//10 73//10
f 55//8 75//8 96//8
f 75//8 55//8 72//8
f 58//11 95//11 73//11
f 95//11 58//11 57//11
