# Blender v2.83.0 OBJ File: 'stc29_rabbit.blend'
# www.blender.org
v -0.796633 0.774448 -0.830618
v -0.796633 0.866368 -0.922538
v 0.705567 0.866368 -0.922539
v 0.705567 0.774448 -0.830619
v -0.888532 0.774448 -0.922538
v -0.796633 -0.727708 -0.830618
v -0.796633 0.774448 -0.816618
v -0.796633 -0.727708 -0.816618
v 0.705567 0.774448 -0.816619
v 0.797467 -0.727708 -0.724699
v 0.797467 0.774448 -0.724699
v 0.705567 -0.727708 -0.816619
v 0.705567 0.866368 -0.724699
v -0.796633 0.866368 -0.724698
v 0.705567 -0.727708 -0.830619
v 0.797467 0.774448 -0.922539
v 0.797467 -0.727708 -0.922539
v 0.705567 -0.819632 -0.922539
v -0.796633 -0.819632 -0.922538
v 0.705566 -0.819632 -2.424699
v -0.796634 -0.819632 -2.424698
v -0.888532 -0.727708 -0.922538
v -0.888533 -0.727708 -2.424698
v -0.888533 0.774448 -2.424698
v -0.796634 0.774448 -2.516618
v -0.796634 -0.727708 -2.516618
v 0.705566 -0.727708 -2.516619
v 0.705566 0.774448 -2.516619
v 0.797466 -0.727708 -2.424699
v 0.797466 0.774448 -2.424699
v 0.705566 0.866368 -2.424699
v -0.796634 0.866368 -2.424698
v 0.705568 0.866368 0.777462
v -0.796632 0.866368 0.777463
v -0.888531 0.774448 0.777463
v -0.888532 0.774448 -0.724698
v -0.888532 -0.727708 -0.724698
v -0.902534 0.774448 -0.724698
v -0.994433 -0.727708 -0.816618
v -0.902534 -0.727708 -0.724698
v -0.994433 0.774448 -0.816618
v -0.902533 0.774448 0.777463
v -0.994432 0.866368 0.777463
v -0.994433 0.866368 -0.724698
v -2.496633 0.866368 -0.724697
v -0.994432 0.880368 0.777463
v -0.994433 0.880368 -0.724698
v -2.496633 0.880368 -0.724697
v -2.588532 0.972288 -0.724697
v -2.496633 0.972288 -0.816617
v -2.496633 0.880368 0.777464
v -2.496633 0.866368 0.777464
v -0.994432 0.774448 0.869383
v -2.496632 0.774448 0.869383
v -2.588531 0.774448 0.777464
v -2.588532 0.774448 -0.724697
v -2.588531 -0.727708 0.777464
v -2.496632 -0.727708 0.869383
v -2.496633 -0.819632 0.777464
v -0.994432 -0.727708 0.869383
v -0.994432 -0.819632 0.777463
v -0.994433 -0.819632 -0.724698
v -0.902533 -0.727708 0.777463
v -0.888531 -0.727708 0.777463
v -0.796632 -0.727708 0.869382
v -0.796632 -0.819632 0.777463
v 0.705567 -0.819632 -0.724699
v -0.796633 -0.819632 -0.724698
v 0.705568 -0.819632 0.777462
v 0.797468 -0.727708 0.777462
v 0.705568 -0.727708 0.869382
v 0.705568 0.774448 0.869382
v 0.797468 0.774448 0.777462
v -0.796632 0.774448 0.869382
v -2.496633 -0.819632 -0.724697
v -2.496633 -0.727708 -0.816617
v -2.496633 0.774448 -0.816617
v -2.588532 -0.727708 -0.724697
v -2.588531 0.972288 0.777464
v -2.496632 0.972288 0.869383
v -2.496632 2.474448 0.869383
v -0.994432 2.474448 0.869383
v -0.994432 0.972288 0.869383
v -2.588531 2.474448 0.777464
v -2.588532 2.474448 -0.724697
v -2.496633 2.566368 -0.724697
v -2.496633 2.566368 0.777464
v -0.994432 2.566368 0.777463
v -0.994433 2.566368 -0.724698
v -0.902533 2.474448 0.777463
v -0.902534 2.474448 -0.724698
v -0.994433 0.972288 -0.816618
v -0.902534 0.972288 -0.724698
v -0.994433 2.474448 -0.816618
v -2.496633 2.474448 -0.816617
v -0.902533 0.972288 0.777463
vn -0.5774 0.5773 0.5773
vn 0.0000 0.7071 0.7071
vn 0.0000 1.0000 0.0000
vn -0.7072 0.0000 0.7070
vn -1.0000 0.0000 0.0000
vn 0.7072 0.0000 -0.7070
vn 0.5774 0.5773 -0.5773
vn 1.0000 0.0000 0.0000
vn -0.0000 0.7071 -0.7071
vn 0.7072 0.0000 0.7070
vn 0.5774 -0.5773 0.5773
vn 0.0000 -0.7071 0.7071
vn 0.0000 -1.0000 0.0000
vn -0.7072 -0.7070 0.0000
vn -0.5774 -0.5773 0.5773
vn -0.7072 0.0000 -0.7070
vn -0.5774 -0.5773 -0.5773
vn -0.0000 0.0000 -1.0000
vn -0.0000 -0.7071 -0.7071
vn 0.5774 -0.5773 -0.5773
vn 0.7072 -0.7070 -0.0000
vn 0.7072 0.7070 -0.0000
vn -0.5774 0.5773 -0.5773
vn -0.7072 0.7070 0.0000
vn 0.5774 0.5773 0.5773
vn 0.0000 0.0000 1.0000
s off
f 1//1 2//1 5//1
f 1//2 3//2 2//2
f 3//2 1//2 4//2
f 1//3 9//3 4//3
f 5//4 6//4 1//4
f 8//5 1//5 6//5
f 9//3 1//3 7//3
f 1//5 8//5 7//5
f 9//6 10//6 12//6
f 10//6 9//6 11//6
f 13//7 11//7 9//7
f 15//8 9//8 12//8
f 9//9 14//9 13//9
f 14//9 9//9 7//9
f 9//8 15//8 4//8
f 15//10 16//10 4//10
f 16//10 15//10 17//10
f 18//11 17//11 15//11
f 15//12 19//12 18//12
f 19//12 15//12 6//12
f 15//13 8//13 6//13
f 8//13 15//13 12//13
f 19//13 20//13 18//13
f 20//13 19//13 21//13
f 19//14 23//14 21//14
f 23//14 19//14 22//14
f 22//15 19//15 6//15
f 22//5 24//5 23//5
f 25//16 23//16 24//16
f 23//16 25//16 26//16
f 23//17 26//17 21//17
f 25//18 27//18 26//18
f 20//19 26//19 27//19
f 26//19 20//19 21//19
f 27//18 25//18 28//18
f 28//6 29//6 27//6
f 27//20 29//20 20//20
f 16//8 29//8 30//8
f 29//6 28//6 30//6
f 29//21 18//21 20//21
f 18//21 29//21 17//21
f 29//8 16//8 17//8
f 31//7 30//7 28//7
f 31//22 16//22 30//22
f 28//9 32//9 31//9
f 32//3 3//3 31//3
f 16//22 31//22 3//22
f 32//9 28//9 25//9
f 32//23 25//23 24//23
f 5//24 32//24 24//24
f 3//3 32//3 2//3
f 32//24 5//24 2//24
f 24//5 22//5 5//5
f 6//4 5//4 22//4
f 4//25 16//25 3//25
f 14//3 33//3 13//3
f 14//23 7//23 36//23
f 33//3 14//3 34//3
f 14//24 35//24 34//24
f 35//24 14//24 36//24
f 38//3 35//3 36//3
f 7//16 37//16 36//16
f 37//18 38//18 36//18
f 38//6 39//6 41//6
f 39//6 38//6 40//6
f 38//18 37//18 40//18
f 44//7 38//7 41//7
f 35//3 38//3 42//3
f 38//22 43//22 42//22
f 43//22 38//22 44//22
f 41//9 45//9 44//9
f 48//18 44//18 45//18
f 44//8 46//8 43//8
f 46//8 44//8 47//8
f 44//18 48//18 47//18
f 51//14 49//14 48//14
f 49//17 50//17 48//17
f 50//19 47//19 48//19
f 48//5 52//5 51//5
f 52//5 48//5 45//5
f 52//2 53//2 43//2
f 53//2 52//2 54//2
f 54//1 52//1 55//1
f 46//26 52//26 43//26
f 45//24 55//24 52//24
f 52//26 46//26 51//26
f 55//24 45//24 56//24
f 56//5 57//5 55//5
f 58//4 55//4 57//4
f 55//4 58//4 54//4
f 57//15 59//15 58//15
f 61//12 58//12 59//12
f 58//26 53//26 54//26
f 53//26 58//26 60//26
f 58//12 61//12 60//12
f 59//13 62//13 61//13
f 62//21 63//21 61//21
f 61//11 63//11 60//11
f 63//10 53//10 60//10
f 53//10 63//10 42//10
f 63//26 35//26 42//26
f 63//21 62//21 40//21
f 37//13 63//13 40//13
f 63//13 37//13 64//13
f 35//26 63//26 64//26
f 65//4 35//4 64//4
f 64//15 66//15 65//15
f 37//14 66//14 64//14
f 66//13 67//13 69//13
f 67//13 66//13 68//13
f 66//14 37//14 68//14
f 69//12 65//12 66//12
f 10//21 69//21 67//21
f 69//21 10//21 70//21
f 69//11 70//11 71//11
f 65//12 69//12 71//12
f 70//10 72//10 71//10
f 72//26 65//26 71//26
f 34//2 72//2 33//2
f 72//25 73//25 33//25
f 72//10 70//10 73//10
f 65//26 72//26 74//26
f 72//2 34//2 74//2
f 74//1 34//1 35//1
f 35//4 65//4 74//4
f 73//22 13//22 33//22
f 13//22 73//22 11//22
f 73//8 10//8 11//8
f 10//8 73//8 70//8
f 8//19 67//19 68//19
f 37//17 8//17 68//17
f 67//19 8//19 12//19
f 12//20 10//20 67//20
f 62//19 76//19 39//19
f 39//20 40//20 62//20
f 76//19 62//19 75//19
f 62//13 59//13 75//13
f 78//16 77//16 76//16
f 77//18 39//18 76//18
f 78//17 76//17 75//17
f 78//14 59//14 57//14
f 57//5 56//5 78//5
f 77//16 78//16 56//16
f 59//14 78//14 75//14
f 45//23 77//23 56//23
f 45//9 41//9 77//9
f 39//18 77//18 41//18
f 53//25 42//25 43//25
f 49//14 51//14 79//14
f 79//15 51//15 80//15
f 46//12 80//12 51//12
f 84//4 80//4 81//4
f 80//26 82//26 81//26
f 82//26 80//26 83//26
f 80//12 46//12 83//12
f 80//4 84//4 79//4
f 84//24 86//24 85//24
f 85//5 79//5 84//5
f 86//24 84//24 87//24
f 81//1 87//1 84//1
f 87//2 82//2 88//2
f 82//2 87//2 81//2
f 88//3 86//3 87//3
f 82//25 90//25 88//25
f 86//3 88//3 89//3
f 88//22 91//22 89//22
f 91//22 88//22 90//22
f 91//6 92//6 94//6
f 92//6 91//6 93//6
f 90//8 93//8 91//8
f 89//7 91//7 94//7
f 92//18 95//18 94//18
f 94//9 86//9 89//9
f 86//9 94//9 95//9
f 86//23 95//23 85//23
f 95//16 49//16 85//16
f 95//18 92//18 50//18
f 49//16 95//16 50//16
f 92//20 93//20 47//20
f 96//21 47//21 93//21
f 93//8 90//8 96//8
f 82//10 96//10 90//10
f 47//21 96//21 46//21
f 46//11 96//11 83//11
f 96//10 82//10 83//10
f 47//19 50//19 92//19
f 79//5 85//5 49//5
f 37//16 7//16 8//16
