# Blender v2.76 (sub 0) OBJ File: 'coffin4_done.blend'
# www.blender.org
o Coffin.Half-Hour.Pieces-Smaller.001_Coffin.Half-Hour.Pieces-Smaller.007
v 2.941296 1.011599 2.941290
v 2.941296 0.901295 3.051599
v 3.051600 0.901295 2.941290
v 1.138708 -1.011602 2.941290
v 1.138708 -0.901298 3.051599
v 1.028400 -0.901298 2.941290
v 2.941296 -0.901298 3.051599
v 2.941296 -1.011602 2.941290
v 3.051600 -0.901298 1.138703
v 3.051600 -0.901298 2.941290
v 2.941296 -1.011602 1.138703
v 3.051600 0.901295 1.138703
v 1.028400 0.901295 1.138703
v 1.028400 -0.901298 1.138703
v 1.028399 0.901295 2.941290
v 2.941296 1.011599 1.138703
v 1.138708 0.901295 3.051599
v 1.138708 1.011599 1.138703
v 1.138708 1.011599 2.941290
v 1.138708 0.901295 1.028398
v 2.941296 0.901295 1.028398
v 2.941296 -0.901298 1.028398
v 1.138709 -1.011602 1.138703
v 1.138709 -0.901298 1.028398
v 1.028400 -1.138706 0.901294
v 1.138709 -1.138706 1.011598
v 1.138709 -1.028402 0.901294
v 1.138709 -3.051602 0.901294
v 2.941296 -2.941298 1.011598
v 1.138709 -2.941298 1.011598
v 2.941296 -3.051602 0.901294
v 3.051600 -2.941298 -0.901298
v 3.051600 -2.941298 0.901294
v 2.941296 -3.051602 -0.901298
v 2.941296 -2.941298 -1.011602
v 1.138709 -1.138706 -1.011602
v 2.941296 -1.138706 -1.011602
v 1.138709 -2.941298 -1.011602
v 1.028400 -2.941298 0.901294
v 2.941296 -1.028401 -0.901298
v 3.051600 -1.138706 0.901294
v 3.051600 -1.138706 -0.901298
v 2.941296 -1.028401 0.901294
v 2.941296 -1.138706 1.011598
v 1.028400 -1.138706 -0.901298
v 1.138709 -1.028402 -0.901298
v 1.138709 -3.051602 -0.901298
v 1.028400 -2.941298 -0.901298
v 1.138708 0.901295 1.011598
v 2.941296 1.011599 0.901294
v 1.138708 1.011599 0.901294
v 2.941296 0.901295 1.011598
v 1.138709 -1.011602 0.901294
v 1.138709 -0.901298 1.011598
v 1.028400 -0.901298 0.901294
v 2.941296 -0.901298 1.011598
v 2.941296 -1.011602 0.901294
v 3.051600 0.901295 -0.901298
v 2.941296 1.011599 -0.901298
v 3.051600 0.901295 0.901294
v 3.051600 -0.901298 -0.901298
v 3.051600 -0.901298 0.901294
v 2.941296 -1.011602 -0.901298
v 1.028400 0.901295 -0.901298
v 1.028400 -0.901298 -0.901298
v 1.028400 0.901295 0.901294
v 1.138709 0.901295 -1.011602
v 1.138709 1.011599 -0.901298
v 2.941296 0.901295 -1.011602
v 2.941296 -0.901298 -1.011602
v 1.138709 -0.901298 -1.011602
v 1.138709 -1.011602 -0.901298
v 1.138709 0.901295 -1.028402
v 2.941296 1.011599 -1.138706
v 1.138709 1.011599 -1.138706
v 2.941296 0.901295 -1.028402
v 1.138709 -1.011602 -1.138706
v 1.138709 -0.901298 -1.028402
v 1.028400 -0.901298 -1.138706
v 2.941296 -0.901298 -1.028402
v 2.941296 -1.011602 -1.138706
v 3.051600 0.901295 -2.941298
v 2.941296 1.011599 -2.941298
v 3.051600 0.901295 -1.138706
v 3.051600 -0.901298 -2.941298
v 3.051600 -0.901298 -1.138706
v 2.941296 -1.011602 -2.941298
v 1.028400 0.901295 -2.941298
v 1.028400 -0.901298 -2.941298
v 1.028400 0.901295 -1.138706
v 2.941296 -0.901298 -3.051603
v 1.138709 0.901295 -3.051603
v 2.941296 0.901295 -3.051603
v 1.138709 -0.901298 -3.051603
v 1.138709 1.011599 -2.941298
v 1.138709 -1.011602 -2.941298
vn 0.577400 0.577400 0.577300
vn -0.577300 -0.577400 0.577300
vn 0.000000 -0.707100 0.707100
vn 0.707100 -0.707100 0.000000
vn 1.000000 0.000000 0.000000
vn -1.000000 -0.000000 -0.000000
vn 0.707100 0.707100 0.000000
vn -0.707100 -0.000000 0.707100
vn 0.707100 0.000000 0.707100
vn -0.000000 1.000000 0.000000
vn -0.577300 0.577400 -0.577400
vn 0.707100 0.000000 -0.707100
vn 0.000000 -1.000000 -0.000000
vn 0.577400 -0.577400 -0.577300
vn -0.000000 0.707100 -0.707100
vn -0.000000 0.707100 0.707100
vn 0.577400 -0.577400 0.577300
vn -0.707100 0.000000 -0.707100
vn -0.000000 -0.000000 1.000000
vn 0.000000 -0.707100 -0.707100
vn 0.577400 0.577400 -0.577300
vn -0.577300 0.577400 0.577300
vn -0.707100 0.707100 -0.000000
vn -0.577300 -0.577400 -0.577400
vn -0.707100 -0.707100 -0.000000
vn -0.577300 0.577400 0.577400
vn 0.577400 -0.577300 -0.577300
vn 0.000000 0.000000 -1.000000
vn -0.577300 -0.577400 0.577400
vn 0.577300 0.577300 0.577400
vn 0.577400 -0.577400 0.577400
vn 0.577400 0.577300 -0.577400
vn 0.577300 0.577400 0.577400
vn 0.577400 -0.577400 -0.577400
vn 0.577300 -0.577400 0.577300
vn 0.577300 0.577400 0.577300
vn 0.577300 -0.577400 0.577400
vn 0.577400 0.577300 -0.577300
s off
f 1//1 2//1 3//1
f 4//2 5//2 6//2
f 4//3 7//3 5//3
f 7//3 4//3 8//3
f 8//4 9//4 10//4
f 9//4 8//4 11//4
f 3//5 9//5 12//5
f 9//5 3//5 10//5
f 6//6 13//6 14//6
f 13//6 6//6 15//6
f 1//7 12//7 16//7
f 12//7 1//7 3//7
f 6//8 17//8 15//8
f 17//8 6//8 5//8
f 7//9 3//9 2//9
f 3//9 7//9 10//9
f 18//10 1//10 16//10
f 1//10 18//10 19//10
f 20//11 13//11 18//11
f 9//12 21//12 12//12
f 21//12 9//12 22//12
f 4//13 11//13 8//13
f 11//13 4//13 23//13
f 9//14 11//14 22//14
f 21//15 18//15 16//15
f 18//15 21//15 20//15
f 17//16 1//16 19//16
f 1//16 17//16 2//16
f 10//17 7//17 8//17
f 24//18 13//18 20//18
f 13//18 24//18 14//18
f 5//19 2//19 17//19
f 2//19 5//19 7//19
f 11//20 24//20 22//20
f 24//20 11//20 23//20
f 16//21 12//21 21//21
f 15//22 17//22 19//22
f 15//23 18//23 13//23
f 18//23 15//23 19//23
f 24//24 23//24 14//24
f 6//25 23//25 4//25
f 23//25 6//25 14//25
f 25//26 26//26 27//26
f 28//3 29//3 30//3
f 29//3 28//3 31//3
f 31//4 32//4 33//4
f 32//4 31//4 34//4
f 32//27 34//27 35//27
f 35//28 36//28 37//28
f 36//28 35//28 38//28
f 28//29 30//29 39//29
f 40//7 41//7 42//7
f 41//7 40//7 43//7
f 29//9 41//9 44//9
f 41//9 29//9 33//9
f 36//11 45//11 46//11
f 41//5 32//5 42//5
f 32//5 41//5 33//5
f 28//13 34//13 31//13
f 34//13 28//13 47//13
f 32//12 37//12 42//12
f 37//12 32//12 35//12
f 37//15 46//15 40//15
f 46//15 37//15 36//15
f 39//6 45//6 48//6
f 45//6 39//6 25//6
f 38//18 45//18 36//18
f 45//18 38//18 48//18
f 43//30 44//30 41//30
f 33//31 29//31 31//31
f 39//8 26//8 25//8
f 26//8 39//8 30//8
f 40//32 42//32 37//32
f 34//20 38//20 35//20
f 38//20 34//20 47//20
f 45//23 27//23 46//23
f 27//23 45//23 25//23
f 30//19 44//19 26//19
f 44//19 30//19 29//19
f 26//16 43//16 27//16
f 43//16 26//16 44//16
f 38//24 47//24 48//24
f 39//25 47//25 28//25
f 47//25 39//25 48//25
f 49//16 50//16 51//16
f 50//16 49//16 52//16
f 53//29 54//29 55//29
f 53//3 56//3 54//3
f 56//3 53//3 57//3
f 50//7 58//7 59//7
f 58//7 50//7 60//7
f 57//4 61//4 62//4
f 61//4 57//4 63//4
f 60//5 61//5 58//5
f 61//5 60//5 62//5
f 55//6 64//6 65//6
f 64//6 55//6 66//6
f 56//9 60//9 52//9
f 60//9 56//9 62//9
f 50//33 52//33 60//33
f 55//8 49//8 66//8
f 49//8 55//8 54//8
f 67//11 64//11 68//11
f 61//12 69//12 58//12
f 69//12 61//12 70//12
f 61//34 63//34 70//34
f 69//15 68//15 59//15
f 68//15 69//15 67//15
f 68//10 50//10 59//10
f 50//10 68//10 51//10
f 62//35 56//35 57//35
f 71//18 64//18 67//18
f 64//18 71//18 65//18
f 63//20 71//20 70//20
f 71//20 63//20 72//20
f 59//21 58//21 69//21
f 66//26 49//26 51//26
f 66//23 68//23 64//23
f 68//23 66//23 51//23
f 71//24 72//24 65//24
f 55//25 72//25 53//25
f 72//25 55//25 65//25
f 73//16 74//16 75//16
f 74//16 73//16 76//16
f 77//29 78//29 79//29
f 77//3 80//3 78//3
f 80//3 77//3 81//3
f 74//7 82//7 83//7
f 82//7 74//7 84//7
f 81//4 85//4 86//4
f 85//4 81//4 87//4
f 84//5 85//5 82//5
f 85//5 84//5 86//5
f 79//6 88//6 89//6
f 88//6 79//6 90//6
f 91//28 92//28 93//28
f 92//28 91//28 94//28
f 80//9 84//9 76//9
f 84//9 80//9 86//9
f 74//36 76//36 84//36
f 79//8 73//8 90//8
f 73//8 79//8 78//8
f 92//11 88//11 95//11
f 85//12 93//12 82//12
f 93//12 85//12 91//12
f 77//13 87//13 81//13
f 87//13 77//13 96//13
f 85//27 87//27 91//27
f 93//15 95//15 83//15
f 95//15 93//15 92//15
f 95//10 74//10 83//10
f 74//10 95//10 75//10
f 86//37 80//37 81//37
f 94//18 88//18 92//18
f 88//18 94//18 89//18
f 87//20 94//20 91//20
f 94//20 87//20 96//20
f 83//38 82//38 93//38
f 90//26 73//26 75//26
f 90//23 95//23 88//23
f 95//23 90//23 75//23
f 94//24 96//24 89//24
f 79//25 96//25 77//25
f 96//25 79//25 89//25
f 21//5 56//5 52//5
f 56//5 21//5 22//5
f 24//6 49//6 54//6
f 49//6 24//6 20//6
f 49//10 21//10 52//10
f 21//10 49//10 20//10
f 24//13 56//13 22//13
f 56//13 24//13 54//13
f 40//28 72//28 63//28
f 72//28 40//28 46//28
f 57//5 40//5 63//5
f 40//5 57//5 43//5
f 27//6 72//6 46//6
f 72//6 27//6 53//6
f 27//19 57//19 53//19
f 57//19 27//19 43//19
f 69//5 80//5 76//5
f 80//5 69//5 70//5
f 71//6 73//6 78//6
f 73//6 71//6 67//6
f 73//10 69//10 76//10
f 69//10 73//10 67//10
f 71//13 80//13 70//13
f 80//13 71//13 78//13
