# Blender v2.83.0 OBJ File: 'stc29_rabbit.blend'
# www.blender.org
v 0.811470 -2.427708 -2.424737
v 0.903390 -2.519632 -2.424737
v 0.903390 -2.427708 -2.516637
v 0.811470 -0.925552 -2.424737
v 0.811470 -0.925552 -0.922536
v 0.811470 -2.427708 -0.922536
v 0.903390 -2.427708 -0.830637
v 0.903390 -2.519632 -0.922536
v 2.405550 -2.519632 -0.922536
v 2.405550 -2.427708 -0.830637
v 2.497471 -2.427708 -0.922536
v 2.497471 -2.427708 -2.424737
v 2.405550 -2.519632 -2.424737
v 2.405550 -2.427708 -2.516637
v 2.405550 -0.925552 -2.516637
v 2.497471 -0.925552 -2.424737
v 2.405550 -0.833632 -2.424737
v 0.903390 -0.925552 -2.516637
v 0.903390 -0.833632 -2.424737
v 0.903390 -0.833632 -0.922536
v 2.405550 -0.819632 -2.424737
v 0.903390 -0.819632 -2.424737
v 0.903390 -0.819632 -0.922536
v 0.903390 -0.727712 -0.830637
v 0.811470 -0.727712 -0.922536
v 2.405550 -0.819632 -0.922536
v 2.405550 -0.833632 -0.922536
v 2.497471 -0.925552 -0.922536
v 2.405550 -0.925552 -0.830637
v 0.903390 -0.925552 -0.830637
v 2.405550 -0.925552 -0.816636
v 0.903390 -0.925552 -0.816636
v 2.405550 -2.427708 -0.816636
v 2.497471 -2.427708 -0.724737
v 2.497471 -0.925552 -0.724737
v 0.903390 -2.519632 -0.724737
v 2.405550 -2.519632 -0.724737
v 0.903390 -2.427708 -0.816636
v 0.811470 -2.427708 -0.724737
v 0.811470 -0.925552 -0.724737
v 0.811470 -2.427708 0.777464
v 0.797470 -2.427708 -0.724737
v 0.705550 -2.519632 -0.724737
v 0.705550 -2.427708 -0.816636
v 0.705550 -2.519632 0.777464
v 0.797470 -2.427708 0.777464
v 0.797470 -0.925552 -0.724737
v 0.705550 -0.833632 -0.724737
v 0.797470 -0.925552 0.777464
v 0.705550 -0.925552 -0.816636
v -0.796606 -0.925552 -0.816636
v -0.796606 -2.427708 -0.816636
v -0.888530 -2.427708 -0.724737
v -0.796606 -2.519632 -0.724737
v -0.796606 -2.519632 0.777464
v -0.888530 -2.427708 0.777464
v -0.888530 -0.925552 0.777464
v -0.796606 -2.427708 0.869363
v 0.705550 -2.427708 0.869363
v -0.796606 -0.925552 0.869363
v -0.796606 -0.833632 0.777464
v 0.705550 -0.925552 0.869363
v 0.705550 -0.833632 0.777464
v -0.888530 -0.925552 -0.724737
v -0.796606 -0.833632 -0.724737
v 0.811470 -0.925552 0.777464
v 0.903390 -0.833632 0.777464
v 0.903390 -0.925552 0.869363
v 0.903390 -2.427708 0.869363
v 2.405550 -2.427708 0.869363
v 2.405550 -2.519632 0.777464
v 0.903390 -2.519632 0.777464
v 0.903390 -2.427708 0.883364
v 2.405550 -2.427708 0.883364
v 0.903390 -0.925552 0.883364
v 0.811470 -2.427708 0.975263
v 0.811470 -0.925552 0.975263
v 0.903390 -0.833632 0.975263
v 2.405550 -0.925552 0.883364
v 2.405550 -0.833632 0.975263
v 2.405550 -0.925552 0.869363
v 2.405550 -0.833632 0.777464
v 2.497471 -0.925552 0.777464
v 2.497471 -2.427708 0.777464
v 2.405550 -0.833632 -0.724737
v 0.903390 -0.833632 -0.724737
v 2.405550 -0.833632 2.477464
v 0.903390 -0.833632 2.477464
v 2.497471 -0.925552 0.975263
v 2.497471 -0.925552 2.477464
v 2.405550 -0.925552 2.569363
v 2.497471 -2.427708 2.477464
v 2.497471 -2.427708 0.975263
v 2.405550 -2.427708 2.569363
v 2.405550 -2.519632 2.477464
v 0.903390 -2.427708 2.569363
v 0.903390 -2.519632 2.477464
v 2.405550 -2.519632 0.975263
v 0.903390 -2.519632 0.975263
v 0.811470 -2.427708 2.477464
v 0.811470 -0.925552 2.477464
v 0.903390 -0.925552 2.569363
v 2.497471 -0.727712 -0.922536
v 2.497471 -0.727712 -2.424737
v 2.405550 -0.727712 -0.830637
v 0.903390 0.774448 -0.830637
v 2.405550 0.774448 -0.830637
v 2.497471 0.774448 -0.922536
v 0.903390 0.866368 -0.922536
v 2.405550 0.866368 -0.922536
v 2.405550 0.866368 -2.424737
v 0.903390 0.866368 -2.424737
v 2.497471 0.774448 -2.424737
v 2.405550 0.774448 -2.516637
v 0.903390 -0.727712 -2.516637
v 2.405550 -0.727712 -2.516637
v 0.903390 0.774448 -2.516637
v 0.811470 0.774448 -2.424737
v 0.811470 -0.727712 -2.424737
v 0.811470 0.774448 -0.922536
vn -0.7071 -0.7071 0.0000
vn -0.5773 -0.5773 -0.5774
vn -0.7070 0.0000 -0.7072
vn -1.0000 0.0000 0.0000
vn -0.5773 -0.5773 0.5774
vn -0.7070 0.0000 0.7072
vn 0.0000 -1.0000 0.0000
vn 0.0000 -0.7070 0.7072
vn 0.5773 -0.5773 0.5774
vn 0.7071 -0.7071 0.0000
vn 0.5773 -0.5773 -0.5774
vn 0.0000 -0.7070 -0.7072
vn 0.7070 0.0000 -0.7072
vn 0.0000 0.0000 -1.0000
vn 0.5773 0.5773 -0.5774
vn 0.0000 0.7070 -0.7072
vn -0.5773 0.5773 -0.5774
vn -0.7071 0.7071 0.0000
vn 0.0000 0.0000 1.0000
vn 0.7071 0.7071 0.0000
vn 0.5773 0.5773 0.5774
vn 0.0000 0.7070 0.7072
vn 1.0000 0.0000 0.0000
vn 0.7070 0.0000 0.7072
vn 0.0000 1.0000 0.0000
vn -0.5773 -0.5773 -0.5775
vn -0.5773 -0.5773 0.5775
vn -0.5773 0.5773 0.5774
s off
f 2//1 6//1 1//1
f 1//2 3//2 2//2
f 4//3 3//3 1//3
f 1//4 5//4 4//4
f 5//4 1//4 6//4
f 7//5 6//5 8//5
f 7//6 5//6 6//6
f 6//1 2//1 8//1
f 2//7 9//7 8//7
f 9//8 7//8 8//8
f 7//8 9//8 10//8
f 10//9 9//9 11//9
f 9//10 12//10 11//10
f 12//10 9//10 13//10
f 9//7 2//7 13//7
f 13//11 14//11 12//11
f 13//12 3//12 14//12
f 3//12 13//12 2//12
f 15//13 12//13 14//13
f 3//14 15//14 14//14
f 12//13 15//13 16//13
f 16//15 15//15 17//15
f 15//16 19//16 17//16
f 15//14 3//14 18//14
f 19//16 15//16 18//16
f 19//17 18//17 4//17
f 4//18 20//18 19//18
f 23//4 19//4 20//4
f 19//14 21//14 17//14
f 21//14 19//14 22//14
f 19//4 23//4 22//4
f 26//8 24//8 23//8
f 24//5 25//5 23//5
f 25//1 22//1 23//1
f 23//19 27//19 26//19
f 27//19 23//19 20//19
f 28//20 17//20 27//20
f 28//21 27//21 29//21
f 20//22 29//22 27//22
f 21//23 27//23 17//23
f 27//23 21//23 26//23
f 29//24 11//24 28//24
f 11//24 29//24 10//24
f 29//23 33//23 10//23
f 29//22 20//22 30//22
f 32//25 29//25 30//25
f 33//23 29//23 31//23
f 29//25 32//25 31//25
f 37//11 33//11 34//11
f 33//13 35//13 34//13
f 35//13 33//13 31//13
f 33//12 36//12 38//12
f 36//12 33//12 37//12
f 7//7 33//7 38//7
f 33//7 7//7 10//7
f 39//3 32//3 38//3
f 39//2 38//2 36//2
f 32//4 7//4 38//4
f 36//1 41//1 39//1
f 32//3 39//3 40//3
f 42//14 40//14 39//14
f 41//7 42//7 39//7
f 42//10 45//10 43//10
f 43//11 44//11 42//11
f 44//13 47//13 42//13
f 45//10 42//10 46//10
f 42//7 41//7 46//7
f 40//14 42//14 47//14
f 47//15 50//15 48//15
f 48//20 49//20 47//20
f 49//25 40//25 47//25
f 47//13 44//13 50//13
f 50//14 52//14 51//14
f 51//16 48//16 50//16
f 52//14 50//14 44//14
f 53//26 52//26 54//26
f 53//3 51//3 52//3
f 44//12 54//12 52//12
f 54//1 56//1 53//1
f 56//1 54//1 55//1
f 54//7 45//7 55//7
f 45//7 54//7 43//7
f 54//12 44//12 43//12
f 58//6 57//6 56//6
f 57//4 53//4 56//4
f 58//27 56//27 55//27
f 58//8 45//8 59//8
f 59//19 60//19 58//19
f 57//6 58//6 60//6
f 45//8 58//8 55//8
f 62//22 61//22 60//22
f 61//28 57//28 60//28
f 60//19 59//19 62//19
f 46//24 62//24 59//24
f 61//22 62//22 63//22
f 49//21 63//21 62//21
f 62//24 46//24 49//24
f 49//20 48//20 63//20
f 48//25 61//25 63//25
f 61//18 64//18 57//18
f 64//18 61//18 65//18
f 61//25 48//25 65//25
f 65//17 51//17 64//17
f 48//16 51//16 65//16
f 51//3 53//3 64//3
f 53//4 57//4 64//4
f 59//9 45//9 46//9
f 41//19 49//19 46//19
f 40//25 49//25 66//25
f 49//19 41//19 66//19
f 67//28 66//28 68//28
f 67//18 40//18 66//18
f 66//6 69//6 68//6
f 69//6 66//6 41//6
f 74//7 69//7 70//7
f 69//8 71//8 70//8
f 71//8 69//8 72//8
f 69//5 41//5 72//5
f 69//4 75//4 68//4
f 75//4 69//4 73//4
f 69//7 74//7 73//7
f 75//3 76//3 77//3
f 76//3 75//3 73//3
f 78//17 75//17 77//17
f 80//16 75//16 78//16
f 81//25 75//25 79//25
f 75//16 80//16 79//16
f 75//25 81//25 68//25
f 81//22 67//22 68//22
f 67//22 81//22 82//22
f 83//21 82//21 81//21
f 81//24 84//24 83//24
f 84//24 81//24 70//24
f 81//23 74//23 70//23
f 74//23 81//23 79//23
f 70//9 71//9 84//9
f 71//10 34//10 84//10
f 84//23 35//23 83//23
f 35//23 84//23 34//23
f 83//20 85//20 82//20
f 85//20 83//20 35//20
f 85//25 67//25 82//25
f 35//15 31//15 85//15
f 67//25 85//25 86//25
f 85//16 32//16 86//16
f 32//16 85//16 31//16
f 86//17 32//17 40//17
f 40//18 67//18 86//18
f 90//20 80//20 87//20
f 80//25 88//25 87//25
f 88//25 80//25 78//25
f 80//20 90//20 89//20
f 89//15 79//15 80//15
f 91//24 92//24 90//24
f 90//21 87//21 91//21
f 92//23 89//23 90//23
f 89//23 92//23 93//23
f 95//10 93//10 92//10
f 92//24 91//24 94//24
f 94//9 95//9 92//9
f 95//8 96//8 97//8
f 96//8 95//8 94//8
f 99//7 95//7 97//7
f 93//10 95//10 98//10
f 95//7 99//7 98//7
f 99//1 100//1 76//1
f 76//2 73//2 99//2
f 74//12 99//12 73//12
f 99//12 74//12 98//12
f 100//1 99//1 97//1
f 96//5 100//5 97//5
f 96//6 101//6 100//6
f 101//4 76//4 100//4
f 88//28 101//28 102//28
f 88//18 77//18 101//18
f 76//4 101//4 77//4
f 101//6 96//6 102//6
f 91//22 88//22 102//22
f 94//19 102//19 96//19
f 102//19 94//19 91//19
f 98//11 74//11 93//11
f 74//13 89//13 93//13
f 88//22 91//22 87//22
f 89//13 74//13 79//13
f 77//18 88//18 78//18
f 41//1 36//1 72//1
f 36//7 71//7 72//7
f 71//7 36//7 37//7
f 34//10 71//10 37//10
f 7//4 32//4 30//4
f 20//28 5//28 30//28
f 5//6 7//6 30//6
f 11//23 16//23 28//23
f 17//20 28//20 16//20
f 105//9 26//9 103//9
f 26//10 104//10 103//10
f 104//10 26//10 21//10
f 24//8 26//8 105//8
f 105//19 106//19 24//19
f 106//19 105//19 107//19
f 103//24 107//24 105//24
f 107//22 109//22 106//22
f 108//21 110//21 107//21
f 107//24 103//24 108//24
f 109//22 107//22 110//22
f 108//20 111//20 110//20
f 111//25 109//25 110//25
f 109//25 111//25 112//25
f 114//16 112//16 111//16
f 111//20 108//20 113//20
f 113//15 114//15 111//15
f 114//14 115//14 117//14
f 115//14 114//14 116//14
f 114//13 104//13 116//13
f 112//16 114//16 117//16
f 104//13 114//13 113//13
f 115//3 118//3 117//3
f 112//17 117//17 118//17
f 118//3 115//3 119//3
f 119//4 120//4 118//4
f 118//18 109//18 112//18
f 109//18 118//18 120//18
f 109//28 120//28 106//28
f 120//6 24//6 106//6
f 120//4 119//4 25//4
f 24//6 120//6 25//6
f 119//2 115//2 22//2
f 22//1 25//1 119//1
f 21//11 116//11 104//11
f 21//12 115//12 116//12
f 115//12 21//12 22//12
f 103//23 113//23 108//23
f 113//23 103//23 104//23
f 20//18 4//18 5//18
f 3//3 4//3 18//3
f 16//23 11//23 12//23
