# Blender v2.76 (sub 0) OBJ File: 'stc78c.blend'
# www.blender.org
o 2_Stc78C.004
v 2.545844 -0.925542 -2.404691
v 2.453923 -0.925542 -2.496615
v 2.453923 -0.833622 -2.404691
v 0.859844 -2.427699 -2.404691
v 0.951764 -2.427699 -2.496615
v 0.951764 -2.519623 -2.404691
v 0.951764 -0.925542 -2.496615
v 0.859844 -0.925542 -2.404691
v 0.951764 -0.833622 -2.404691
v 0.859843 -0.925542 -0.902534
v 0.951764 -0.833622 -0.902534
v 2.453923 -2.519623 -0.902534
v 0.951764 -2.519623 -0.902534
v 2.453923 -2.519623 -2.404691
v 2.453923 -0.833622 -0.902534
v 2.545844 -0.925542 -0.902534
v 2.453923 -2.427699 -2.496615
v 2.545844 -2.427699 -0.902534
v 2.545844 -2.427699 -2.404691
v 2.453923 -2.427699 -0.810614
v 2.453923 -0.925542 -0.810614
v 0.951764 -0.925542 -0.810614
v 0.859843 -2.427699 -0.902534
v 0.951764 -2.427699 -0.810614
v 2.453923 -0.727702 -2.496615
v 2.545844 0.774458 -2.404691
v 2.545844 -0.727702 -2.404691
v 2.453923 0.774458 -2.496615
v 0.859844 -0.727702 -2.404691
v 0.951764 0.774458 -2.496615
v 0.951764 -0.727702 -2.496615
v 0.859844 0.774458 -2.404691
v 2.453923 0.866378 -2.404691
v 0.951764 0.866378 -0.902534
v 2.453923 0.866378 -0.902534
v 0.951764 0.866378 -2.404691
v 0.859843 0.774458 -0.902534
v 0.951764 0.774458 -0.810614
v 2.453923 -0.727702 -0.810614
v 2.453923 0.774458 -0.810614
v 0.951764 -0.727702 -0.810614
v 0.951764 -0.819622 -2.404691
v 2.545844 0.774458 -0.902534
v 2.453923 -0.819622 -0.902534
v 2.545844 -0.727702 -0.902534
v 0.859843 -0.727702 -0.902534
v 2.453923 -0.819622 -2.404691
v 0.951764 -0.819622 -0.902534
v 2.453923 -2.427699 -0.796614
v 2.545844 -0.925542 -0.704694
v 2.545844 -2.427699 -0.704694
v 2.453923 -0.925542 -0.796614
v 0.859843 -2.427699 -0.704694
v 0.951764 -2.427699 -0.796614
v 0.951764 -2.519623 -0.704694
v 0.951764 -0.925542 -0.796614
v 0.859843 -0.925542 -0.704694
v 2.453923 -0.833622 0.797466
v 2.545844 -0.925542 0.797466
v 2.453923 -0.833622 -0.704694
v 0.951764 -0.833622 -0.704694
v 0.859843 -0.925542 0.797466
v 0.951764 -0.833622 0.797466
v 2.453923 -2.519623 0.797466
v 0.951764 -2.519623 0.797466
v 2.453923 -2.519623 -0.704694
v 2.453923 -2.427699 0.889386
v 2.545844 -2.427699 0.797466
v 0.951764 -0.925542 0.889386
v 2.453923 -0.925542 0.889386
v 0.859843 -2.427699 0.797466
v 0.951764 -2.427699 0.889386
v 0.753923 -2.519623 0.995306
v 0.753923 -2.427699 0.903386
v 0.845844 -2.427699 0.995306
v -0.840157 -2.427699 0.995306
v -0.748237 -0.925542 0.903386
v -0.748237 -2.427699 0.903386
v -0.840157 -0.925542 0.995306
v -0.748237 -0.833622 0.995306
v -0.840157 -0.925542 2.497467
v -0.748237 -0.833622 2.497467
v -0.748237 -0.925542 2.589387
v 0.753923 -2.427699 2.589387
v 0.753923 -0.925542 2.589387
v -0.748237 -2.427699 2.589387
v -0.748237 -2.519623 0.995306
v 0.845844 -0.925542 0.995306
v 0.753923 -0.833622 2.497467
v 0.845843 -0.925542 2.497467
v 0.753923 -0.833622 0.995306
v 0.753923 -0.925542 0.903386
v 0.753923 -2.519623 2.497467
v 0.845843 -2.427699 2.497467
v -0.840157 -2.427699 2.497467
v -0.748237 -2.519623 2.497467
v 0.753923 -0.727702 0.903386
v 0.845844 0.774458 0.995306
v 0.845844 -0.727702 0.995306
v 0.753923 0.774458 0.903386
v 0.845843 0.774458 2.497467
v 0.753923 0.866378 0.995306
v 0.753923 0.866378 2.497467
v -0.840157 -0.727702 0.995306
v -0.748237 0.774458 0.903386
v -0.748237 -0.727702 0.903386
v -0.840157 0.774458 0.995306
v -0.748237 0.866378 2.497467
v -0.748237 0.866378 0.995306
v -0.840157 0.774458 2.497467
v -0.748237 0.774458 2.589387
v 0.753923 -0.727702 2.589387
v 0.753923 0.774458 2.589387
v -0.748237 -0.727702 2.589387
v -0.748237 -0.819622 0.995306
v 0.753923 -0.819622 0.995306
v 0.753923 -0.819622 2.497467
v 0.845843 -0.727702 2.497467
v -0.840157 -0.727702 2.497467
v -0.748237 -0.819622 2.497467
v 2.453923 -2.427699 0.903386
v 2.545844 -0.925542 0.995306
v 2.545844 -2.427699 0.995306
v 2.453923 -0.925542 0.903386
v 0.859843 -2.427699 0.995306
v 0.951764 -2.427699 0.903386
v 0.951764 -2.519623 0.995306
v 0.951764 -0.925542 0.903386
v 0.859843 -0.925542 0.995306
v 2.453923 -0.833622 2.497467
v 2.545844 -0.925542 2.497467
v 2.453923 -0.833622 0.995306
v 0.951764 -0.833622 0.995306
v 0.859843 -0.925542 2.497467
v 0.951764 -0.833622 2.497467
v 2.453923 -2.519623 2.497467
v 0.951764 -2.519623 2.497467
v 2.453923 -2.519623 0.995306
v 0.951764 -0.925542 2.589387
v 2.453923 -2.427699 2.589387
v 2.453923 -0.925542 2.589387
v 0.951764 -2.427699 2.589387
v 2.545844 -2.427699 2.497467
v 0.859843 -2.427699 2.497467
vn 0.577400 0.577400 -0.577300
vn -0.577400 -0.577300 -0.577300
vn -0.707100 0.000000 -0.707100
vn -0.707100 0.707100 -0.000000
vn 0.000000 -1.000000 0.000000
vn 0.707100 0.707100 0.000000
vn 0.000000 -0.707100 -0.707100
vn 0.000000 0.707100 -0.707100
vn 1.000000 0.000000 0.000000
vn 0.577400 -0.577300 0.577400
vn -0.000000 0.707100 0.707100
vn -1.000000 0.000000 -0.000000
vn -0.577300 0.577300 0.577400
vn 0.707100 0.000000 0.707100
vn 0.707100 0.000000 -0.707100
vn -0.577400 0.577400 -0.577300
vn -0.000000 -0.707100 0.707100
vn 0.000000 0.000000 -1.000000
vn -0.707100 0.000000 0.707100
vn 0.577300 0.577300 0.577400
vn 0.577400 -0.577300 -0.577300
vn 0.707100 -0.707100 0.000000
vn -0.577400 -0.577300 0.577400
vn -0.707100 -0.707100 -0.000000
vn 0.000000 1.000000 0.000000
vn -0.000000 0.000000 1.000000
vn -0.577400 -0.577400 -0.577300
vn 0.577300 -0.577300 0.577400
vn -0.577300 -0.577300 0.577400
vn 0.577400 -0.577400 -0.577300
vn -0.577400 -0.577300 -0.577400
vn 0.577300 0.577400 -0.577300
vn -0.577400 0.577400 0.577300
vn 0.577300 0.577400 0.577400
vn 0.577400 -0.577300 -0.577400
vn -0.577300 0.577400 0.577400
vn -0.577300 0.577400 -0.577300
vn -0.577300 -0.577400 -0.577400
vn 0.577300 -0.577400 0.577400
vn 0.577400 0.577400 -0.577400
vn -0.577300 -0.577400 0.577400
vn -0.577300 0.577400 -0.577400
vn 0.577400 -0.577400 -0.577400
vn 0.577300 0.577400 -0.577400
s off
f 1//1 2//1 3//1
f 4//2 5//2 6//2
f 4//3 7//3 5//3
f 7//3 4//3 8//3
f 9//4 10//4 11//4
f 10//4 9//4 8//4
f 6//5 12//5 13//5
f 12//5 6//5 14//5
f 1//6 15//6 16//6
f 15//6 1//6 3//6
f 6//7 17//7 14//7
f 17//7 6//7 5//7
f 2//8 9//8 3//8
f 9//8 2//8 7//8
f 18//9 1//9 16//9
f 1//9 18//9 19//9
f 20//10 12//10 18//10
f 11//11 21//11 15//11
f 21//11 11//11 22//11
f 4//12 10//12 8//12
f 10//12 4//12 23//12
f 11//13 10//13 22//13
f 21//14 18//14 16//14
f 18//14 21//14 20//14
f 17//15 1//15 19//15
f 1//15 17//15 2//15
f 9//16 7//16 8//16
f 24//17 12//17 20//17
f 12//17 24//17 13//17
f 5//18 2//18 17//18
f 2//18 5//18 7//18
f 10//19 24//19 22//19
f 24//19 10//19 23//19
f 16//20 15//20 21//20
f 14//21 17//21 19//21
f 14//22 18//22 12//22
f 18//22 14//22 19//22
f 24//23 23//23 13//23
f 6//24 23//24 4//24
f 23//24 6//24 13//24
f 25//15 26//15 27//15
f 26//15 25//15 28//15
f 29//3 30//3 31//3
f 30//3 29//3 32//3
f 33//25 34//25 35//25
f 34//25 33//25 36//25
f 32//4 34//4 36//4
f 34//4 32//4 37//4
f 34//13 37//13 38//13
f 38//26 39//26 40//26
f 39//26 38//26 41//26
f 29//27 31//27 42//27
f 26//6 35//6 43//6
f 35//6 26//6 33//6
f 39//28 44//28 45//28
f 31//18 28//18 25//18
f 28//18 31//18 30//18
f 29//12 37//12 32//12
f 37//12 29//12 46//12
f 34//11 40//11 35//11
f 40//11 34//11 38//11
f 40//14 45//14 43//14
f 45//14 40//14 39//14
f 42//7 25//7 47//7
f 25//7 42//7 31//7
f 45//9 26//9 43//9
f 26//9 45//9 27//9
f 26//1 28//1 33//1
f 37//19 41//19 38//19
f 41//19 37//19 46//19
f 41//29 46//29 48//29
f 42//24 46//24 29//24
f 46//24 42//24 48//24
f 30//8 33//8 28//8
f 33//8 30//8 36//8
f 36//16 30//16 32//16
f 43//20 35//20 40//20
f 47//30 25//30 27//30
f 41//17 44//17 39//17
f 44//17 41//17 48//17
f 47//22 45//22 44//22
f 45//22 47//22 27//22
f 49//15 50//15 51//15
f 50//15 49//15 52//15
f 53//31 54//31 55//31
f 53//3 56//3 54//3
f 56//3 53//3 57//3
f 50//6 58//6 59//6
f 58//6 50//6 60//6
f 61//4 62//4 63//4
f 62//4 61//4 57//4
f 60//25 63//25 58//25
f 63//25 60//25 61//25
f 55//5 64//5 65//5
f 64//5 55//5 66//5
f 52//8 61//8 60//8
f 61//8 52//8 56//8
f 50//32 52//32 60//32
f 55//7 49//7 66//7
f 49//7 55//7 54//7
f 67//10 64//10 68//10
f 58//11 69//11 70//11
f 69//11 58//11 63//11
f 53//12 62//12 57//12
f 62//12 53//12 71//12
f 63//33 62//33 69//33
f 70//14 68//14 59//14
f 68//14 70//14 67//14
f 68//9 50//9 59//9
f 50//9 68//9 51//9
f 61//16 56//16 57//16
f 72//17 64//17 67//17
f 64//17 72//17 65//17
f 62//19 72//19 69//19
f 72//19 62//19 71//19
f 59//34 58//34 70//34
f 66//35 49//35 51//35
f 66//22 68//22 64//22
f 68//22 66//22 51//22
f 72//23 71//23 65//23
f 55//24 71//24 53//24
f 71//24 55//24 65//24
f 73//35 74//35 75//35
f 76//3 77//3 78//3
f 77//3 76//3 79//3
f 80//4 81//4 82//4
f 81//4 80//4 79//4
f 82//36 81//36 83//36
f 83//26 84//26 85//26
f 84//26 83//26 86//26
f 76//31 78//31 87//31
f 88//6 89//6 90//6
f 89//6 88//6 91//6
f 92//8 80//8 91//8
f 80//8 92//8 77//8
f 84//10 93//10 94//10
f 76//12 81//12 79//12
f 81//12 76//12 95//12
f 89//11 83//11 85//11
f 83//11 89//11 82//11
f 85//14 94//14 90//14
f 94//14 85//14 84//14
f 87//5 93//5 96//5
f 93//5 87//5 73//5
f 86//17 93//17 84//17
f 93//17 86//17 96//17
f 88//1 92//1 91//1
f 80//37 77//37 79//37
f 87//7 74//7 73//7
f 74//7 87//7 78//7
f 90//34 89//34 85//34
f 81//19 86//19 83//19
f 86//19 81//19 95//19
f 93//22 75//22 94//22
f 75//22 93//22 73//22
f 78//18 92//18 74//18
f 92//18 78//18 77//18
f 74//15 88//15 75//15
f 88//15 74//15 92//15
f 86//23 95//23 96//23
f 87//24 95//24 76//24
f 95//24 87//24 96//24
f 97//15 98//15 99//15
f 98//15 97//15 100//15
f 101//6 102//6 103//6
f 102//6 101//6 98//6
f 104//3 105//3 106//3
f 105//3 104//3 107//3
f 107//4 108//4 109//4
f 108//4 107//4 110//4
f 108//36 110//36 111//36
f 111//26 112//26 113//26
f 112//26 111//26 114//26
f 104//38 106//38 115//38
f 115//7 97//7 116//7
f 97//7 115//7 106//7
f 112//39 117//39 118//39
f 98//40 100//40 102//40
f 102//25 108//25 103//25
f 108//25 102//25 109//25
f 104//12 110//12 107//12
f 110//12 104//12 119//12
f 108//11 113//11 103//11
f 113//11 108//11 111//11
f 113//14 118//14 101//14
f 118//14 113//14 112//14
f 105//8 102//8 100//8
f 102//8 105//8 109//8
f 118//9 98//9 101//9
f 98//9 118//9 99//9
f 101//34 103//34 113//34
f 110//19 114//19 111//19
f 114//19 110//19 119//19
f 114//41 119//41 120//41
f 115//24 119//24 104//24
f 119//24 115//24 120//24
f 109//42 105//42 107//42
f 106//18 100//18 97//18
f 100//18 106//18 105//18
f 116//43 97//43 99//43
f 114//17 117//17 112//17
f 117//17 114//17 120//17
f 117//22 99//22 118//22
f 99//22 117//22 116//22
f 121//15 122//15 123//15
f 122//15 121//15 124//15
f 125//31 126//31 127//31
f 125//3 128//3 126//3
f 128//3 125//3 129//3
f 122//6 130//6 131//6
f 130//6 122//6 132//6
f 133//4 134//4 135//4
f 134//4 133//4 129//4
f 132//25 135//25 130//25
f 135//25 132//25 133//25
f 127//5 136//5 137//5
f 136//5 127//5 138//5
f 139//26 140//26 141//26
f 140//26 139//26 142//26
f 124//8 133//8 132//8
f 133//8 124//8 128//8
f 122//44 124//44 132//44
f 127//7 121//7 138//7
f 121//7 127//7 126//7
f 140//10 136//10 143//10
f 130//11 139//11 141//11
f 139//11 130//11 135//11
f 135//13 134//13 139//13
f 141//14 143//14 131//14
f 143//14 141//14 140//14
f 143//9 122//9 131//9
f 122//9 143//9 123//9
f 133//16 128//16 129//16
f 142//17 136//17 140//17
f 136//17 142//17 137//17
f 134//19 142//19 139//19
f 142//19 134//19 144//19
f 131//34 130//34 141//34
f 138//35 121//35 123//35
f 138//22 143//22 136//22
f 143//22 138//22 123//22
f 142//23 144//23 137//23
f 127//24 144//24 125//24
f 144//24 127//24 137//24
f 21//25 56//25 52//25
f 56//25 21//25 22//25
f 24//5 49//5 54//5
f 49//5 24//5 20//5
f 49//9 21//9 52//9
f 21//9 49//9 20//9
f 24//12 56//12 22//12
f 56//12 24//12 54//12
f 48//26 15//26 44//26
f 15//26 48//26 11//26
f 9//18 47//18 3//18
f 47//18 9//18 42//18
f 15//9 47//9 44//9
f 47//9 15//9 3//9
f 9//12 48//12 42//12
f 48//12 9//12 11//12
f 90//26 144//26 134//26
f 144//26 90//26 94//26
f 129//25 90//25 134//25
f 90//25 129//25 88//25
f 75//5 144//5 94//5
f 144//5 75//5 125//5
f 75//18 129//18 125//18
f 129//18 75//18 88//18
f 120//26 89//26 117//26
f 89//26 120//26 82//26
f 80//18 116//18 91//18
f 116//18 80//18 115//18
f 89//9 116//9 117//9
f 116//9 89//9 91//9
f 80//12 120//12 115//12
f 120//12 80//12 82//12
f 70//25 128//25 124//25
f 128//25 70//25 69//25
f 72//5 121//5 126//5
f 121//5 72//5 67//5
f 121//9 70//9 124//9
f 70//9 121//9 67//9
f 72//12 128//12 69//12
f 128//12 72//12 126//12
