# Blender v2.83.0 OBJ File: 'stc78a.blend'
# www.blender.org
v 0.742630 -0.661368 2.458586
v -0.735830 -0.661368 2.458586
v -0.732144 -0.666592 2.458586
v -0.720392 0.817093 2.458586
v -0.735830 0.801654 2.458586
v 0.727192 0.817093 2.458586
v 0.738945 -0.666592 2.458586
v 0.742630 0.801654 2.458586
v -0.732144 -2.286594 2.458586
v -0.741055 -0.806593 2.458586
v -0.741055 -2.277680 2.458586
v -0.732144 -0.797683 2.458586
v 0.738945 -2.286594 2.458586
v 0.738945 -0.797683 2.458586
v 0.747855 -2.277680 2.458586
v 0.747855 -0.806593 2.458586
v 0.887855 -2.286594 2.458586
v 0.878945 -0.806593 2.458586
v 0.878945 -2.277680 2.458586
v 0.887855 -0.797683 2.458586
v 2.358942 -2.286594 2.458586
v 2.358942 -0.797683 2.458586
v 2.367856 -2.277680 2.458586
v 2.367856 -0.806593 2.458586
v 0.887855 -2.286594 0.838586
v 0.878945 -0.806593 0.838586
v 0.878945 -2.277680 0.838586
v 0.887855 -0.797683 0.838586
v 2.358942 -2.286594 0.838586
v 2.358942 -0.797683 0.838586
v 2.367856 -2.277680 0.838586
v 2.367856 -0.806593 0.838586
v 2.424486 -0.806593 2.401959
v 2.424486 -0.797683 0.921959
v 2.424486 -0.797683 2.393049
v 2.424486 -0.806593 0.913049
v 2.424486 -2.277680 2.401959
v 2.424486 -2.277680 0.913049
v 2.424486 -2.286594 2.393049
v 2.424486 -2.286594 0.921959
v 0.804490 -0.806593 2.401959
v 0.804490 -0.797683 0.921959
v 0.804490 -0.797683 2.393049
v 0.804490 -0.806593 0.913049
v 0.804490 -2.277680 2.401959
v 0.804490 -2.277680 0.913049
v 0.804490 -2.286594 2.393049
v 0.804490 -2.286594 0.921959
v 2.367856 -2.343224 0.921959
v 0.887855 -2.343224 0.913049
v 2.358942 -2.343224 0.913049
v 0.878945 -2.343224 0.921959
v 2.367856 -2.343224 2.393049
v 0.878945 -2.343224 2.393049
v 2.358942 -2.343224 2.401959
v 0.887855 -2.343224 2.401959
v 0.878945 -0.741048 0.921959
v 2.358942 -0.741048 0.913049
v 0.887855 -0.741048 0.913049
v 2.367856 -0.741048 0.921959
v 0.878945 -0.741048 2.393049
v 2.367856 -0.741048 2.393049
v 0.887855 -0.741048 2.401959
v 2.358942 -0.741048 2.401959
v 0.747855 -2.343224 0.921959
v -0.732145 -2.343224 0.913049
v 0.738945 -2.343224 0.913049
v -0.741055 -2.343224 0.921959
v 0.747855 -2.343224 2.393049
v -0.741055 -2.343224 2.393049
v 0.738945 -2.343224 2.401959
v -0.732144 -2.343224 2.401959
v 0.822310 -0.806593 0.913049
v 0.822310 -0.797683 2.393049
v 0.822310 -0.797683 0.921959
v 0.822310 -0.806593 2.401959
v 0.822310 -2.277680 0.913049
v 0.822310 -2.277680 2.401959
v 0.822310 -2.286594 0.921959
v 0.822310 -2.286594 2.393049
v 0.742630 -0.723228 0.918274
v -0.732145 -0.723228 0.913049
v 0.738945 -0.723228 0.913049
v -0.735830 -0.723228 0.918274
v 0.742630 -0.723228 2.396734
v -0.735830 -0.723228 2.396735
v 0.738945 -0.723228 2.401959
v -0.732144 -0.723228 2.401959
v -0.741055 -0.741048 0.921959
v 0.738945 -0.741048 0.913049
v -0.732145 -0.741048 0.913049
v 0.747855 -0.741048 0.921959
v -0.741055 -0.741048 2.393049
v 0.747855 -0.741048 2.393049
v -0.732144 -0.741048 2.401959
v 0.738945 -0.741048 2.401959
v -0.797682 -0.806593 0.913049
v -0.797682 -0.797683 2.393049
v -0.797682 -0.797683 0.921959
v -0.797682 -0.806593 2.401959
v -0.797682 -2.277680 0.913049
v -0.797682 -2.277680 2.401959
v -0.797682 -2.286594 0.921959
v -0.797682 -2.286594 2.393049
v -0.720392 0.817093 0.856414
v -0.735830 -0.661368 0.856414
v -0.735830 0.801654 0.856414
v 0.727192 0.817093 0.856414
v 0.742630 -0.661368 0.856414
v -0.732145 -0.666592 0.856414
v 0.742630 0.801654 0.856414
v 0.738945 -0.666592 0.856414
v 2.424486 -0.806593 0.781959
v 2.424486 -0.797683 -0.698057
v 2.424486 -0.797683 0.773049
v 2.424486 -0.806593 -0.706967
v 2.424486 -2.277680 0.781959
v 2.424486 -2.277680 -0.706967
v 2.424486 -2.286594 0.773049
v 2.424486 -2.286594 -0.698057
v -0.732145 -0.797683 0.856414
v -0.741055 -2.277680 0.856414
v -0.741055 -0.806593 0.856414
v -0.732145 -2.286594 0.856414
v 0.738945 -0.797683 0.856414
v 0.738945 -2.286594 0.856414
v 0.747855 -0.806593 0.856414
v 0.747855 -2.277680 0.856414
v 0.887855 -0.797683 0.856414
v 0.878945 -2.277680 0.856414
v 0.878945 -0.806593 0.856414
v 0.887855 -2.286594 0.856414
v 2.358942 -0.797683 0.856414
v 2.358942 -2.286594 0.856414
v 2.367856 -0.806593 0.856414
v 2.367856 -2.277680 0.856414
v 2.367856 -2.343224 -0.698057
v 0.887855 -2.343224 -0.706967
v 2.358942 -2.343224 -0.706967
v 0.878945 -2.343224 -0.698057
v 2.367856 -2.343224 0.773049
v 0.878945 -2.343224 0.773049
v 2.358942 -2.343224 0.781959
v 0.887855 -2.343224 0.781959
v 0.878945 -0.741048 -0.698057
v 2.358942 -0.741048 -0.706967
v 0.887855 -0.741048 -0.706967
v 2.367856 -0.741048 -0.698057
v 0.878945 -0.741048 0.773049
v 2.367856 -0.741048 0.773049
v 0.887855 -0.741048 0.781959
v 2.358942 -0.741048 0.781959
v 0.822310 -0.806593 -0.706967
v 0.822310 -0.797683 0.773049
v 0.822310 -0.797683 -0.698057
v 0.822310 -0.806593 0.781959
v 0.822310 -2.277680 -0.706967
v 0.822310 -2.277680 0.781959
v 0.822310 -2.286594 -0.698057
v 0.822310 -2.286594 0.773049
v 0.887855 -0.797683 -0.763586
v 0.878945 -2.277680 -0.763586
v 0.878945 -0.806593 -0.763586
v 0.887855 -2.286594 -0.763586
v 2.358942 -0.797683 -0.763586
v 2.358942 -2.286594 -0.763586
v 2.367856 -0.806593 -0.763586
v 2.367856 -2.277680 -0.763586
v -0.671063 0.832605 2.421156
v -0.070594 0.225234 1.813786
v -0.671670 0.826303 2.414855
v 0.077394 0.225234 1.813786
v -0.001055 0.155687 1.744239
v 0.007855 0.155687 1.744239
v 0.677863 0.832605 2.421156
v 0.678470 0.826303 2.414854
v -0.070594 0.225234 1.501222
v -0.671063 0.832605 0.893852
v -0.671670 0.826303 0.900154
v 0.077394 0.225234 1.501222
v -0.001055 0.155687 1.570769
v 0.007855 0.155687 1.570769
v 0.677863 0.832605 0.893852
v 0.678470 0.826303 0.900154
v 0.758142 -0.676879 0.893852
v 0.044540 0.045633 1.607454
v 0.040085 0.032268 1.611909
v 0.686749 0.687841 0.965246
v 0.755534 -0.683181 0.896461
v 0.758142 0.752325 0.893852
v 0.751840 0.752933 0.900154
v 0.040085 0.032268 1.703099
v 0.003400 0.068953 1.648594
v 0.003400 0.068953 1.666414
v 0.758142 -0.685789 2.412246
v 0.755534 -0.683181 2.418548
v 0.758142 -0.685789 0.902762
v 0.758142 0.752325 2.421156
v 0.686749 0.687841 2.349763
v 0.751840 0.752933 2.414854
v 0.758142 -0.676879 2.421156
v 0.044540 0.045633 1.707554
v -0.033285 0.032268 1.611909
v -0.033285 0.032268 1.703099
v -0.751342 -0.685789 0.902762
v -0.748734 -0.683181 0.896461
v -0.751342 -0.685789 2.412246
v -0.748734 -0.683181 2.418548
v -0.751342 -0.676879 0.893852
v -0.679957 0.687841 0.965238
v -0.751342 0.752325 0.893852
v -0.745040 0.752933 0.900154
v -0.037740 0.045633 1.607454
v -0.679957 0.687841 2.349771
v -0.751342 0.752325 2.421156
v -0.745040 0.752933 2.414855
v -0.751342 -0.676879 2.421156
v -0.037740 0.045633 1.707554
v 2.350032 -0.815503 0.838594
v 0.896765 -2.268770 0.838594
v 0.896765 -0.815503 0.838594
v 2.350032 -2.268770 0.838594
v 0.896765 -0.815503 0.856414
v 2.350032 -0.815503 0.856414
v 2.350032 -2.268770 0.856414
v 0.896765 -2.268770 0.856414
v 0.822310 -0.815503 0.930869
v 0.804490 -2.268770 0.930869
v 0.804490 -0.815503 0.930869
v 0.822310 -2.268770 0.930869
v 0.804490 -0.815503 2.384139
v 0.822310 -0.815503 2.384139
v 0.822310 -2.268770 2.384139
v 0.804490 -2.268770 2.384139
v 0.730035 -0.723228 0.930869
v -0.723235 -0.741048 0.930869
v -0.723235 -0.723228 0.930869
v 0.730035 -0.741048 0.930869
v -0.723235 -0.723228 2.384139
v 0.730035 -0.723228 2.384139
v 0.730035 -0.741048 2.384139
v -0.723235 -0.741048 2.384139
vn 0.0000 0.0000 1.0000
vn 1.0000 0.0000 0.0000
vn 0.0000 -1.0000 0.0000
vn 0.0000 1.0000 0.0000
vn -1.0000 0.0000 0.0000
vn 0.0000 0.0000 -1.0000
vn -0.7071 0.7071 0.0000
vn 0.7071 0.0000 0.7071
vn 0.7071 0.7071 0.0000
vn 0.5773 0.5772 -0.5775
vn 0.5774 0.5773 -0.5774
vn 0.5773 0.5774 -0.5773
vn 0.5773 0.5776 -0.5772
vn 0.5772 -0.5774 0.5774
vn 0.5773 -0.5773 0.5774
vn 0.5774 -0.5772 0.5774
vn -0.5775 -0.5773 -0.5772
vn -0.5773 -0.5774 -0.5774
vn -0.5773 -0.5774 -0.5773
vn -0.5772 -0.5773 -0.5775
vn -0.0000 0.7071 -0.7071
vn -0.7071 0.0000 -0.7071
vn 0.0000 -0.7071 0.7071
vn -0.7071 0.0000 0.7072
vn -0.5773 0.5774 0.5774
vn -0.5773 0.5773 0.5774
vn -0.5774 0.5773 0.5774
vn 0.7071 0.0000 -0.7071
vn 0.5774 -0.5774 -0.5773
vn 0.5774 -0.5773 -0.5773
vn 0.5773 -0.5773 -0.5775
vn 0.7071 -0.7071 0.0000
vn 0.0000 0.7071 0.7072
vn 0.5771 0.5774 0.5775
vn 0.5772 0.5774 0.5775
vn 0.5773 0.5774 0.5774
vn 0.5774 0.5773 0.5774
vn -0.5774 0.5773 -0.5774
vn -0.5774 0.5774 -0.5773
vn -0.5773 0.5774 -0.5773
vn -0.5773 0.5774 -0.5774
vn -0.5773 -0.5773 0.5774
vn -0.5774 -0.5772 0.5775
vn -0.5774 -0.5773 0.5774
vn -0.5775 -0.5772 0.5773
vn -0.0000 -0.7071 -0.7071
vn -0.7071 -0.7071 0.0000
vn -0.5773 0.5774 0.5773
vn 0.5774 -0.5772 0.5775
vn 0.5773 -0.5774 0.5774
vn 0.5773 -0.5774 0.5773
vn 0.7071 0.0000 0.7072
vn -0.7072 0.7071 0.0000
vn -0.5775 -0.5772 -0.5774
vn -0.5774 -0.5774 -0.5773
vn -0.5773 -0.5773 -0.5774
vn 0.5773 0.5773 -0.5774
vn 0.5773 0.5774 -0.5774
vn -0.7072 0.0000 -0.7071
vn -0.7071 0.0000 0.7071
vn 0.5773 0.5773 0.5774
vn -0.5774 0.5773 -0.5773
vn -0.5774 -0.5772 0.5774
vn 0.5774 -0.5772 -0.5774
vn 0.5773 -0.5774 -0.5773
vn 0.0000 0.7071 0.7071
vn 0.7071 -0.0001 0.7071
vn 0.9238 0.0000 0.3828
vn 0.7076 -0.4992 0.5001
vn 0.7073 -0.4997 0.5001
vn 0.7070 -0.5000 0.5001
vn 0.7074 -0.5000 0.4996
vn 0.7077 -0.5000 0.4992
vn 0.0000 -0.7071 0.7072
vn 0.0000 0.9238 0.3828
vn 0.5959 0.5959 -0.5384
vn 0.5958 0.5959 -0.5384
vn -0.9238 0.0000 0.3828
vn -0.7076 -0.4992 0.5001
vn -0.7072 -0.4997 0.5001
vn -0.7073 -0.5000 0.4997
vn -0.7076 -0.5001 0.4992
vn -0.7070 -0.5000 0.5001
vn -0.5959 0.5958 -0.5384
vn -0.5959 0.5959 -0.5384
vn 0.9238 -0.3828 0.0000
vn 0.4082 0.4082 -0.8165
vn 0.4083 0.4083 -0.8165
vn 0.4082 0.4083 -0.8165
vn -0.4082 0.4082 -0.8165
vn -0.4083 0.4082 -0.8165
vn -0.4082 0.4083 -0.8165
vn -0.4083 0.4083 -0.8165
vn -0.9238 -0.3828 0.0000
vn 0.0000 0.3162 -0.9487
vn 0.0000 0.3162 0.9487
vn 0.4083 0.4083 0.8165
vn 0.4082 0.4083 0.8165
vn 0.4082 0.4082 0.8165
vn -0.4082 0.4083 0.8165
vn -0.4083 0.4083 0.8165
vn -0.4082 0.4082 0.8165
vn -0.4083 0.4082 0.8165
vn 0.7077 -0.4992 -0.5000
vn 0.7073 -0.4997 -0.5000
vn 0.7073 -0.5000 -0.4997
vn 0.7077 -0.5000 -0.4992
vn 0.7071 -0.5000 -0.5000
vn -0.7076 -0.4992 -0.5000
vn -0.7073 -0.4997 -0.5000
vn -0.7071 -0.5000 -0.5000
vn -0.7073 -0.5000 -0.4997
vn -0.7076 -0.5000 -0.4992
vn 0.9238 0.0000 -0.3828
vn 0.5959 0.5959 0.5383
vn 0.5959 0.5959 0.5384
vn 0.5958 0.5959 0.5384
vn 0.0000 0.9238 -0.3828
vn -0.5959 0.5958 0.5384
vn -0.5959 0.5959 0.5383
vn -0.5959 0.5959 0.5384
vn -0.9238 0.0000 -0.3828
vn -0.5773 0.5773 -0.5775
vn -0.5772 0.5774 -0.5774
vn -0.7070 0.0000 -0.7072
vn 0.0000 0.7070 -0.7072
vn 0.5773 0.5773 -0.5775
vn 0.5772 0.5775 -0.5773
vn 0.7070 0.0000 -0.7072
vn -0.0000 -0.7070 -0.7072
vn -0.5775 -0.5772 -0.5773
vn -0.5773 -0.5773 -0.5775
vn 0.5773 -0.5773 -0.5774
s off
f 1//1 2//1 3//1
f 2//1 4//1 5//1
f 2//1 6//1 4//1
f 1//1 3//1 7//1
f 2//1 1//1 6//1
f 6//1 1//1 8//1
f 9//1 10//1 11//1
f 9//1 12//1 10//1
f 13//1 12//1 9//1
f 13//1 14//1 12//1
f 15//1 14//1 13//1
f 14//1 15//1 16//1
f 17//1 18//1 19//1
f 17//1 20//1 18//1
f 21//1 20//1 17//1
f 21//1 22//1 20//1
f 23//1 22//1 21//1
f 22//1 23//1 24//1
f 25//1 26//1 27//1
f 25//1 28//1 26//1
f 29//1 28//1 25//1
f 29//1 30//1 28//1
f 31//1 30//1 29//1
f 30//1 31//1 32//1
f 33//2 34//2 35//2
f 33//2 36//2 34//2
f 37//2 36//2 33//2
f 37//2 38//2 36//2
f 39//2 38//2 37//2
f 38//2 39//2 40//2
f 41//2 42//2 43//2
f 41//2 44//2 42//2
f 45//2 44//2 41//2
f 45//2 46//2 44//2
f 47//2 46//2 45//2
f 46//2 47//2 48//2
f 49//3 50//3 51//3
f 49//3 52//3 50//3
f 53//3 52//3 49//3
f 53//3 54//3 52//3
f 55//3 54//3 53//3
f 54//3 55//3 56//3
f 57//4 58//4 59//4
f 57//4 60//4 58//4
f 61//4 60//4 57//4
f 61//4 62//4 60//4
f 63//4 62//4 61//4
f 62//4 63//4 64//4
f 65//3 66//3 67//3
f 65//3 68//3 66//3
f 69//3 68//3 65//3
f 69//3 70//3 68//3
f 71//3 70//3 69//3
f 70//3 71//3 72//3
f 73//5 74//5 75//5
f 73//5 76//5 74//5
f 77//5 76//5 73//5
f 77//5 78//5 76//5
f 79//5 78//5 77//5
f 78//5 79//5 80//5
f 81//3 82//3 83//3
f 81//3 84//3 82//3
f 85//3 84//3 81//3
f 85//3 86//3 84//3
f 87//3 86//3 85//3
f 86//3 87//3 88//3
f 89//4 90//4 91//4
f 89//4 92//4 90//4
f 93//4 92//4 89//4
f 93//4 94//4 92//4
f 95//4 94//4 93//4
f 94//4 95//4 96//4
f 97//5 98//5 99//5
f 97//5 100//5 98//5
f 101//5 100//5 97//5
f 101//5 102//5 100//5
f 103//5 102//5 101//5
f 102//5 103//5 104//5
f 105//6 106//6 107//6
f 108//6 106//6 105//6
f 109//6 106//6 108//6
f 106//6 109//6 110//6
f 109//6 108//6 111//6
f 110//6 109//6 112//6
f 113//2 114//2 115//2
f 113//2 116//2 114//2
f 117//2 116//2 113//2
f 117//2 118//2 116//2
f 119//2 118//2 117//2
f 118//2 119//2 120//2
f 121//6 122//6 123//6
f 121//6 124//6 122//6
f 125//6 124//6 121//6
f 125//6 126//6 124//6
f 127//6 126//6 125//6
f 126//6 127//6 128//6
f 129//6 130//6 131//6
f 129//6 132//6 130//6
f 133//6 132//6 129//6
f 133//6 134//6 132//6
f 135//6 134//6 133//6
f 134//6 135//6 136//6
f 137//3 138//3 139//3
f 137//3 140//3 138//3
f 141//3 140//3 137//3
f 141//3 142//3 140//3
f 143//3 142//3 141//3
f 142//3 143//3 144//3
f 145//4 146//4 147//4
f 145//4 148//4 146//4
f 149//4 148//4 145//4
f 149//4 150//4 148//4
f 151//4 150//4 149//4
f 150//4 151//4 152//4
f 153//5 154//5 155//5
f 153//5 156//5 154//5
f 157//5 156//5 153//5
f 157//5 158//5 156//5
f 159//5 158//5 157//5
f 158//5 159//5 160//5
f 161//6 162//6 163//6
f 161//6 164//6 162//6
f 165//6 164//6 161//6
f 165//6 166//6 164//6
f 167//6 166//6 165//6
f 166//6 167//6 168//6
f 75//7 61//7 57//7
f 61//7 75//7 74//7
f 37//8 24//8 23//8
f 24//8 37//8 33//8
f 35//9 60//9 62//9
f 60//9 35//9 34//9
f 34//10 58//10 60//10
f 34//11 133//11 58//11
f 36//12 133//12 34//12
f 133//13 36//13 135//13
f 53//14 21//14 55//14
f 53//15 23//15 21//15
f 39//15 23//15 53//15
f 23//16 39//16 37//16
f 50//17 130//17 132//17
f 50//18 77//18 130//18
f 52//19 77//19 50//19
f 77//20 52//20 79//20
f 59//21 133//21 129//21
f 133//21 59//21 58//21
f 130//22 73//22 131//22
f 73//22 130//22 77//22
f 55//23 17//23 56//23
f 17//23 55//23 21//23
f 19//24 76//24 78//24
f 76//24 19//24 18//24
f 18//25 74//25 76//25
f 18//26 61//26 74//26
f 20//26 61//26 18//26
f 61//27 20//27 63//27
f 38//28 135//28 36//28
f 135//28 38//28 136//28
f 51//29 136//29 38//29
f 136//30 51//30 134//30
f 49//31 38//31 40//31
f 38//31 49//31 51//31
f 53//32 40//32 39//32
f 40//32 53//32 49//32
f 22//33 63//33 20//33
f 63//33 22//33 64//33
f 62//34 22//34 24//34
f 22//35 62//35 64//35
f 35//36 24//36 33//36
f 24//37 35//37 62//37
f 75//38 59//38 129//38
f 59//39 75//39 57//39
f 73//40 129//40 131//40
f 129//41 73//41 75//41
f 19//42 80//42 54//42
f 80//43 19//43 78//43
f 17//44 54//44 56//44
f 54//45 17//45 19//45
f 51//46 132//46 134//46
f 132//46 51//46 50//46
f 52//47 80//47 79//47
f 80//47 52//47 54//47
f 10//48 98//48 100//48
f 10//27 93//27 98//27
f 12//26 93//26 10//26
f 93//27 12//27 95//27
f 13//49 45//49 15//49
f 13//49 47//49 45//49
f 71//50 47//50 13//50
f 47//51 71//51 69//51
f 45//52 16//52 15//52
f 16//52 45//52 41//52
f 43//9 92//9 94//9
f 92//9 43//9 42//9
f 99//53 93//53 89//53
f 93//53 99//53 98//53
f 71//23 9//23 72//23
f 9//23 71//23 13//23
f 14//33 95//33 12//33
f 95//33 14//33 96//33
f 124//54 101//54 122//54
f 124//54 103//54 101//54
f 66//55 103//55 124//55
f 103//56 66//56 68//56
f 91//21 125//21 121//21
f 125//21 91//21 90//21
f 42//11 90//11 92//11
f 42//57 125//57 90//57
f 44//58 125//58 42//58
f 125//12 44//12 127//12
f 122//59 97//59 123//59
f 97//59 122//59 101//59
f 11//60 100//60 102//60
f 100//60 11//60 10//60
f 43//61 96//61 14//61
f 96//36 43//36 94//36
f 41//61 14//61 16//61
f 14//36 41//36 43//36
f 67//46 124//46 126//46
f 124//46 67//46 66//46
f 46//28 127//28 44//28
f 127//28 46//28 128//28
f 99//62 91//62 121//62
f 91//38 99//38 89//38
f 97//39 121//39 123//39
f 121//62 97//62 99//62
f 9//63 102//63 104//63
f 102//63 9//63 11//63
f 72//44 104//44 70//44
f 104//44 72//44 9//44
f 68//47 104//47 103//47
f 104//47 68//47 70//47
f 46//64 126//64 128//64
f 48//64 126//64 46//64
f 67//65 48//65 65//65
f 48//65 67//65 126//65
f 69//32 48//32 47//32
f 48//32 69//32 65//32
f 169//21 170//21 171//21
f 172//21 170//21 169//21
f 170//21 172//21 173//21
f 173//21 172//21 174//21
f 175//21 172//21 169//21
f 172//21 175//21 176//21
f 177//66 178//66 179//66
f 180//66 177//66 181//66
f 180//66 181//66 182//66
f 177//66 180//66 178//66
f 180//66 183//66 178//66
f 183//66 180//66 184//66
f 185//8 186//8 187//8
f 186//8 185//8 188//8
f 185//8 187//8 189//8
f 188//8 185//8 190//8
f 188//67 190//67 191//67
f 192//9 193//9 194//9
f 192//9 187//9 193//9
f 195//9 192//9 196//9
f 192//9 195//9 187//9
f 197//9 187//9 195//9
f 187//9 197//9 189//9
f 198//28 199//28 200//28
f 201//28 199//28 198//28
f 199//28 201//28 202//28
f 202//28 201//28 192//28
f 192//28 201//28 196//28
f 203//7 194//7 193//7
f 203//7 204//7 194//7
f 205//7 203//7 206//7
f 203//7 205//7 204//7
f 207//7 204//7 205//7
f 204//7 207//7 208//7
f 203//60 209//60 206//60
f 209//60 210//60 211//60
f 211//60 210//60 212//60
f 209//60 213//60 210//60
f 209//60 203//60 213//60
f 214//22 215//22 216//22
f 217//22 214//22 218//22
f 217//22 218//22 204//22
f 214//22 217//22 215//22
f 217//22 204//22 208//22
f 1//68 198//68 8//68
f 198//68 1//68 201//68
f 7//69 201//69 1//69
f 7//70 196//70 201//70
f 87//71 196//71 7//71
f 196//72 87//72 195//72
f 195//73 87//73 85//73
f 87//74 3//74 88//74
f 3//74 87//74 7//74
f 4//75 175//75 169//75
f 175//75 4//75 6//75
f 175//76 200//76 176//76
f 6//76 200//76 175//76
f 8//76 200//76 6//76
f 200//77 8//77 198//77
f 215//78 2//78 5//78
f 2//78 215//78 217//78
f 217//79 3//79 2//79
f 208//80 3//80 217//80
f 88//81 208//81 207//81
f 88//82 207//82 86//82
f 208//83 88//83 3//83
f 171//84 4//84 169//84
f 171//85 5//85 4//85
f 215//84 171//84 216//84
f 171//85 215//85 5//85
f 85//86 197//86 195//86
f 197//86 85//86 81//86
f 176//87 199//87 172//87
f 199//87 176//87 200//87
f 172//88 202//88 174//88
f 202//89 172//89 199//89
f 171//90 214//90 216//90
f 214//91 171//91 170//91
f 170//92 218//92 214//92
f 218//93 170//93 173//93
f 84//94 207//94 205//94
f 207//94 84//94 86//94
f 202//95 218//95 173//95
f 202//95 173//95 174//95
f 218//95 202//95 204//95
f 204//95 202//95 192//95
f 194//66 204//66 192//66
f 187//21 203//21 193//21
f 186//96 213//96 203//96
f 213//96 186//96 181//96
f 186//96 203//96 187//96
f 181//96 186//96 182//96
f 186//97 180//97 182//97
f 180//98 186//98 188//98
f 188//99 184//99 180//99
f 184//99 188//99 191//99
f 213//100 177//100 210//100
f 177//101 213//101 181//101
f 210//102 179//102 212//102
f 179//103 210//103 177//103
f 185//104 112//104 109//104
f 189//105 112//105 185//105
f 83//106 189//106 197//106
f 83//107 197//107 81//107
f 189//108 83//108 112//108
f 83//46 110//46 112//46
f 110//46 83//46 82//46
f 110//109 209//109 106//109
f 110//110 206//110 209//110
f 82//111 206//111 110//111
f 206//112 82//112 205//112
f 205//113 82//113 84//113
f 190//114 109//114 111//114
f 109//114 190//114 185//114
f 191//115 108//115 183//115
f 108//115 191//115 111//115
f 191//116 183//116 184//116
f 111//117 191//117 190//117
f 178//118 108//118 105//118
f 108//118 178//118 183//118
f 105//119 179//119 178//119
f 107//120 179//120 105//120
f 211//120 179//120 107//120
f 179//121 211//121 212//121
f 106//122 211//122 107//122
f 211//122 106//122 209//122
f 155//123 147//123 161//123
f 147//39 155//39 145//39
f 153//123 161//123 163//123
f 161//124 153//124 155//124
f 162//125 153//125 163//125
f 153//125 162//125 157//125
f 26//25 154//25 156//25
f 26//26 149//26 154//26
f 28//26 149//26 26//26
f 149//27 28//27 151//27
f 27//24 156//24 158//24
f 156//24 27//24 26//24
f 117//8 32//8 31//8
f 32//8 117//8 113//8
f 147//126 165//126 161//126
f 165//126 147//126 146//126
f 30//33 151//33 28//33
f 151//33 30//33 152//33
f 30//35 150//35 152//35
f 32//34 150//34 30//34
f 115//36 32//36 113//36
f 32//37 115//37 150//37
f 141//32 120//32 119//32
f 120//32 141//32 137//32
f 141//14 29//14 143//14
f 141//15 31//15 29//15
f 119//15 31//15 141//15
f 31//16 119//16 117//16
f 27//42 160//42 142//42
f 160//43 27//43 158//43
f 25//44 142//44 144//44
f 142//45 25//45 27//45
f 155//7 149//7 145//7
f 149//7 155//7 154//7
f 114//10 146//10 148//10
f 114//127 165//127 146//127
f 116//58 165//58 114//58
f 165//128 116//128 167//128
f 143//23 25//23 144//23
f 25//23 143//23 29//23
f 115//9 148//9 150//9
f 148//9 115//9 114//9
f 118//129 167//129 116//129
f 167//129 118//129 168//129
f 139//130 164//130 166//130
f 164//130 139//130 138//130
f 140//47 160//47 159//47
f 160//47 140//47 142//47
f 138//131 162//131 164//131
f 138//132 157//132 162//132
f 140//19 157//19 138//19
f 157//20 140//20 159//20
f 139//133 168//133 118//133
f 168//133 139//133 166//133
f 137//31 118//31 120//31
f 118//31 137//31 139//31
f 219//6 220//6 221//6
f 220//6 219//6 222//6
f 223//4 219//4 221//4
f 219//4 223//4 224//4
f 225//3 220//3 222//3
f 220//3 225//3 226//3
f 225//1 223//1 226//1
f 223//1 225//1 224//1
f 220//5 223//5 221//5
f 223//5 220//5 226//5
f 225//2 219//2 224//2
f 219//2 225//2 222//2
f 227//6 228//6 229//6
f 228//6 227//6 230//6
f 231//4 227//4 229//4
f 227//4 231//4 232//4
f 233//3 228//3 230//3
f 228//3 233//3 234//3
f 233//1 231//1 234//1
f 231//1 233//1 232//1
f 228//5 231//5 229//5
f 231//5 228//5 234//5
f 233//2 227//2 232//2
f 227//2 233//2 230//2
f 235//6 236//6 237//6
f 236//6 235//6 238//6
f 239//4 235//4 237//4
f 235//4 239//4 240//4
f 241//3 236//3 238//3
f 236//3 241//3 242//3
f 241//1 239//1 242//1
f 239//1 241//1 240//1
f 236//5 239//5 237//5
f 239//5 236//5 242//5
f 241//2 235//2 240//2
f 235//2 241//2 238//2
