# Blender v2.76 (sub 0) OBJ File: 'stc78c.blend'
# www.blender.org
o 4_Stc78C
v -2.448256 0.972302 -0.796614
v -2.448256 2.474458 -0.810613
v -2.448256 0.972302 -0.810613
v -2.448256 2.474458 -0.796613
v -0.946076 0.972302 -0.810613
v -0.946076 0.972302 -0.796613
v -0.946076 2.474458 -0.796613
v -0.946076 2.474458 -0.810613
v -2.448257 0.866381 0.797467
v -2.448256 0.880381 -0.704693
v -2.448256 0.866382 -0.704693
v -2.448257 0.880381 0.797467
v -0.946076 0.880381 0.797467
v -0.946076 0.866382 -0.704693
v -0.946076 0.880381 -0.704693
v -0.946076 0.866381 0.797467
v 2.453925 0.972302 -0.796613
v 0.951765 0.880381 -0.704693
v 0.951765 0.972302 -0.796613
v 2.453924 0.880381 -0.704693
v 2.453924 2.474458 0.889388
v 2.545845 0.972301 0.797468
v 2.545845 2.474458 0.797468
v 2.453924 0.972301 0.889388
v 2.453924 0.880381 0.797468
v 0.951765 0.972301 0.889387
v 0.951765 0.880381 0.797467
v 0.859844 0.972301 0.797467
v 0.859844 2.474458 -0.704693
v 0.859844 0.972302 -0.704693
v 0.859844 2.474458 0.797468
v 2.453924 2.566381 0.797468
v 0.951765 2.566382 -0.704693
v 0.951765 2.566381 0.797468
v 2.453924 2.566382 -0.704692
v 0.951765 2.474458 -0.796613
v 2.545845 0.972302 -0.704693
v 2.545845 2.474458 -0.704692
v 0.951765 2.474458 0.889388
v 2.453925 2.474458 -0.796613
v 2.453925 0.972302 -2.496613
v 2.545845 0.972302 -2.404693
v 2.453925 0.880382 -2.404693
v 2.453925 2.474458 -0.810612
v 2.545845 2.474458 -0.902533
v 2.453925 2.566382 -0.902533
v 2.545845 0.972302 -0.902533
v 2.453925 0.972302 -0.810613
v 2.453925 0.880381 -0.902533
v 0.951765 0.972302 -0.810613
v 0.951765 0.880381 -0.902533
v 0.951765 0.880382 -2.404693
v 0.951765 2.566382 -2.404693
v 0.951765 2.566382 -0.902533
v 2.453925 2.566382 -2.404692
v 0.951765 0.972302 -2.496613
v 2.545845 2.474458 -2.404692
v 0.951765 2.474458 -2.496613
v 2.453925 2.474458 -2.496613
v 0.859845 2.474458 -2.404693
v 0.859844 0.972302 -0.902533
v 0.859845 0.972302 -2.404693
v 0.859844 2.474458 -0.902533
v 0.951765 2.474458 -0.810613
v 0.845845 2.474458 -2.404693
v 0.753925 0.972302 -2.496613
v 0.753925 2.474458 -2.496613
v 0.845845 0.972302 -2.404693
v 0.753925 2.474458 -0.810613
v 0.845845 2.474458 -0.902533
v 0.753925 2.566382 -0.902533
v 0.845845 0.972302 -0.902533
v 0.753925 0.972302 -0.810613
v -0.748235 0.880382 -2.404693
v -0.748235 0.972302 -2.496614
v 0.753925 0.880382 -2.404693
v 0.753925 0.880381 -0.902533
v -0.748236 0.972302 -0.810613
v -0.748236 0.880381 -0.902533
v -0.748235 2.566382 -2.404693
v -0.748236 2.566382 -0.902533
v 0.753925 2.566382 -2.404693
v -0.840156 2.474458 -2.404693
v -0.748235 2.474458 -2.496613
v -0.840156 0.972302 -0.902533
v -0.840156 0.972302 -2.404693
v -0.748236 2.474458 -0.810613
v -0.840156 2.474458 -0.902533
v -0.946076 2.566382 -0.704693
v -0.854156 2.474458 -0.704693
v -0.946076 2.474458 0.889387
v -0.854156 0.972301 0.797467
v -0.854156 2.474458 0.797467
v -0.946076 0.972301 0.889387
v -2.448257 0.972301 0.889387
v -2.540157 0.972301 0.797467
v -2.540156 2.474458 -0.704693
v -2.540156 0.972302 -0.704693
v -2.540157 2.474458 0.797467
v -0.946076 2.566381 0.797467
v -0.854156 0.972302 -0.704693
v -2.448256 2.566382 -0.704693
v -2.448257 2.474458 0.889387
v -2.448257 2.566381 0.797467
v -0.854156 0.774461 -0.704693
v -0.946076 -0.727699 -0.796614
v -0.946076 0.774461 -0.796613
v -0.854156 -0.727699 -0.704693
v -2.448256 -0.727699 -0.796614
v -0.946076 -0.819619 -0.704693
v -2.448256 -0.819619 -0.704694
v -0.946076 0.774461 0.889387
v -0.854156 -0.727699 0.797467
v -0.854156 0.774461 0.797467
v -0.946076 -0.727699 0.889387
v -2.448257 -0.819619 0.797467
v -0.946076 -0.819619 0.797467
v -2.448257 -0.727699 0.889387
v -2.540157 -0.727699 0.797467
v -2.540156 0.774461 -0.704693
v -2.540156 -0.727699 -0.704694
v -2.540157 0.774461 0.797467
v -2.448256 0.774461 -0.796614
v -2.448257 0.774461 0.889387
v -0.854156 2.474458 -2.404693
v -0.946075 0.972302 -2.496614
v -0.946075 2.474458 -2.496613
v -0.854156 0.972302 -2.404693
v -0.854156 2.474458 -0.902533
v -0.946076 2.566382 -0.902533
v -0.854156 0.972302 -0.902533
v -2.448256 0.880382 -2.404693
v -2.448256 0.972302 -2.496614
v -0.946075 0.880382 -2.404693
v -0.946076 0.880381 -0.902533
v -2.448256 0.880381 -0.902534
v -2.448256 2.566382 -2.404693
v -2.448256 2.566382 -0.902533
v -0.946075 2.566382 -2.404693
v -2.540156 0.972302 -0.902534
v -2.540156 2.474458 -2.404693
v -2.540156 0.972302 -2.404693
v -2.540156 2.474458 -0.902533
v -2.448256 2.474458 -2.496614
vn -1.000000 0.000000 0.000000
vn 0.000000 -1.000000 0.000000
vn 0.000000 1.000000 0.000000
vn 1.000000 -0.000000 0.000000
vn 0.000000 0.000000 -1.000000
vn -0.000000 0.000000 1.000000
vn 0.000000 -0.707100 -0.707100
vn 0.707100 -0.000000 0.707100
vn -0.000000 -0.707100 0.707100
vn -0.577300 -0.577400 0.577400
vn 0.577400 0.577300 0.577400
vn -0.577400 0.577300 -0.577400
vn -0.707100 -0.707100 -0.000000
vn -0.707100 0.000000 -0.707100
vn 0.707100 0.707100 0.000000
vn 0.707100 0.000000 -0.707100
vn 0.577400 -0.577400 -0.577300
vn -0.707100 -0.000000 0.707100
vn -0.577400 0.577300 0.577400
vn -0.000000 0.707100 0.707100
vn 0.707100 -0.707100 -0.000000
vn 0.577300 -0.577300 0.577400
vn -0.577300 -0.577400 -0.577400
vn 0.577400 0.577300 -0.577400
vn -0.707100 0.707100 -0.000000
vn 0.000000 0.707100 -0.707100
vn 0.577300 -0.577400 -0.577400
vn -0.577400 -0.577400 -0.577300
vn 0.577400 -0.577300 0.577300
vn -0.577400 -0.577300 0.577300
vn -0.577400 0.577300 -0.577300
vn -0.707200 -0.707000 -0.000000
vn -0.707200 0.000000 -0.707000
vn -0.707200 0.707000 -0.000000
vn 0.577400 -0.577300 -0.577300
vn -0.577400 -0.577300 -0.577300
vn -0.707200 -0.000000 0.707000
vn -0.577400 0.577300 0.577300
vn 0.577400 0.577300 0.577300
vn 0.577400 0.577300 -0.577300
s off
f 1//1 2//1 3//1
f 2//1 1//1 4//1
f 5//2 1//2 3//2
f 1//2 5//2 6//2
f 7//3 2//3 4//3
f 2//3 7//3 8//3
f 7//4 5//4 8//4
f 5//4 7//4 6//4
f 9//1 10//1 11//1
f 10//1 9//1 12//1
f 13//4 14//4 15//4
f 14//4 13//4 16//4
f 10//5 14//5 11//5
f 14//5 10//5 15//5
f 13//6 9//6 16//6
f 9//6 13//6 12//6
f 17//7 18//7 19//7
f 18//7 17//7 20//7
f 21//8 22//8 23//8
f 22//8 21//8 24//8
f 25//9 26//9 27//9
f 26//9 25//9 24//9
f 27//10 26//10 28//10
f 28//1 29//1 30//1
f 29//1 28//1 31//1
f 21//11 23//11 32//11
f 32//3 33//3 34//3
f 33//3 32//3 35//3
f 20//2 27//2 18//2
f 27//2 20//2 25//2
f 29//12 33//12 36//12
f 23//4 37//4 38//4
f 37//4 23//4 22//4
f 21//6 26//6 24//6
f 26//6 21//6 39//6
f 18//13 28//13 30//13
f 28//13 18//13 27//13
f 29//14 19//14 30//14
f 19//14 29//14 36//14
f 32//15 38//15 35//15
f 38//15 32//15 23//15
f 38//16 17//16 40//16
f 17//16 38//16 37//16
f 17//17 37//17 20//17
f 39//18 28//18 26//18
f 28//18 39//18 31//18
f 31//19 39//19 34//19
f 32//20 39//20 21//20
f 39//20 32//20 34//20
f 37//21 25//21 20//21
f 25//21 37//21 22//21
f 25//22 22//22 24//22
f 19//23 18//23 30//23
f 35//24 38//24 40//24
f 34//25 29//25 31//25
f 29//25 34//25 33//25
f 33//26 40//26 36//26
f 40//26 33//26 35//26
f 41//27 42//27 43//27
f 44//11 45//11 46//11
f 44//8 47//8 45//8
f 47//8 44//8 48//8
f 49//9 50//9 51//9
f 50//9 49//9 48//9
f 43//2 51//2 52//2
f 51//2 43//2 49//2
f 46//3 53//3 54//3
f 53//3 46//3 55//3
f 41//7 52//7 56//7
f 52//7 41//7 43//7
f 46//15 57//15 55//15
f 57//15 46//15 45//15
f 42//21 49//21 43//21
f 49//21 42//21 47//21
f 58//5 41//5 56//5
f 41//5 58//5 59//5
f 60//12 53//12 58//12
f 52//13 61//13 62//13
f 61//13 52//13 51//13
f 51//10 50//10 61//10
f 62//14 58//14 56//14
f 58//14 62//14 60//14
f 57//16 41//16 59//16
f 41//16 57//16 42//16
f 49//22 47//22 48//22
f 54//25 60//25 63//25
f 60//25 54//25 53//25
f 45//4 42//4 57//4
f 42//4 45//4 47//4
f 64//18 61//18 50//18
f 61//18 64//18 63//18
f 56//28 52//28 62//28
f 55//24 57//24 59//24
f 55//26 58//26 53//26
f 58//26 55//26 59//26
f 63//19 64//19 54//19
f 46//20 64//20 44//20
f 64//20 46//20 54//20
f 65//16 66//16 67//16
f 66//16 65//16 68//16
f 69//11 70//11 71//11
f 69//8 72//8 70//8
f 72//8 69//8 73//8
f 66//7 74//7 75//7
f 74//7 66//7 76//7
f 77//9 78//9 79//9
f 78//9 77//9 73//9
f 76//2 79//2 74//2
f 79//2 76//2 77//2
f 71//3 80//3 81//3
f 80//3 71//3 82//3
f 72//21 76//21 68//21
f 76//21 72//21 77//21
f 66//17 68//17 76//17
f 71//15 65//15 82//15
f 65//15 71//15 70//15
f 83//12 80//12 84//12
f 74//13 85//13 86//13
f 85//13 74//13 79//13
f 69//6 78//6 73//6
f 78//6 69//6 87//6
f 79//10 78//10 85//10
f 86//14 84//14 75//14
f 84//14 86//14 83//14
f 84//5 66//5 75//5
f 66//5 84//5 67//5
f 77//29 72//29 73//29
f 81//25 83//25 88//25
f 83//25 81//25 80//25
f 87//18 85//18 78//18
f 85//18 87//18 88//18
f 75//23 74//23 86//23
f 82//24 65//24 67//24
f 82//26 84//26 80//26
f 84//26 82//26 67//26
f 88//19 87//19 81//19
f 71//20 87//20 69//20
f 87//20 71//20 81//20
f 89//24 90//24 7//24
f 91//8 92//8 93//8
f 92//8 91//8 94//8
f 13//9 95//9 12//9
f 95//9 13//9 94//9
f 12//30 95//30 96//30
f 96//1 97//1 98//1
f 97//1 96//1 99//1
f 91//11 93//11 100//11
f 6//7 10//7 1//7
f 10//7 6//7 15//7
f 92//21 15//21 101//21
f 15//21 92//21 13//21
f 97//31 102//31 4//31
f 91//6 95//6 94//6
f 95//6 91//6 103//6
f 10//32 96//32 98//32
f 96//32 10//32 12//32
f 97//33 1//33 98//33
f 1//33 97//33 4//33
f 100//3 102//3 104//3
f 102//3 100//3 89//3
f 104//34 97//34 99//34
f 97//34 104//34 102//34
f 6//35 101//35 15//35
f 13//29 92//29 94//29
f 100//15 90//15 89//15
f 90//15 100//15 93//15
f 1//36 10//36 98//36
f 103//37 96//37 95//37
f 96//37 103//37 99//37
f 102//26 7//26 4//26
f 7//26 102//26 89//26
f 93//4 101//4 90//4
f 101//4 93//4 92//4
f 90//16 6//16 7//16
f 6//16 90//16 101//16
f 99//38 103//38 104//38
f 100//20 103//20 91//20
f 103//20 100//20 104//20
f 105//16 106//16 107//16
f 106//16 105//16 108//16
f 109//7 110//7 111//7
f 110//7 109//7 106//7
f 112//8 113//8 114//8
f 113//8 112//8 115//8
f 115//9 116//9 117//9
f 116//9 115//9 118//9
f 116//30 118//30 119//30
f 119//1 120//1 121//1
f 120//1 119//1 122//1
f 112//39 114//39 16//39
f 16//15 105//15 14//15
f 105//15 16//15 114//15
f 120//31 11//31 123//31
f 106//35 108//35 110//35
f 110//2 116//2 111//2
f 116//2 110//2 117//2
f 112//6 118//6 115//6
f 118//6 112//6 124//6
f 111//32 119//32 121//32
f 119//32 111//32 116//32
f 120//33 109//33 121//33
f 109//33 120//33 123//33
f 113//21 110//21 108//21
f 110//21 113//21 117//21
f 123//5 106//5 109//5
f 106//5 123//5 107//5
f 109//36 111//36 121//36
f 124//37 119//37 118//37
f 119//37 124//37 122//37
f 122//38 124//38 9//38
f 16//20 124//20 112//20
f 124//20 16//20 9//20
f 117//29 113//29 115//29
f 114//4 108//4 105//4
f 108//4 114//4 113//4
f 14//40 105//40 107//40
f 9//34 120//34 122//34
f 120//34 9//34 11//34
f 11//26 107//26 123//26
f 107//26 11//26 14//26
f 125//16 126//16 127//16
f 126//16 125//16 128//16
f 8//11 129//11 130//11
f 8//8 131//8 129//8
f 131//8 8//8 5//8
f 126//7 132//7 133//7
f 132//7 126//7 134//7
f 135//9 3//9 136//9
f 3//9 135//9 5//9
f 134//2 136//2 132//2
f 136//2 134//2 135//2
f 130//3 137//3 138//3
f 137//3 130//3 139//3
f 140//1 141//1 142//1
f 141//1 140//1 143//1
f 131//21 134//21 128//21
f 134//21 131//21 135//21
f 126//35 128//35 134//35
f 130//15 125//15 139//15
f 125//15 130//15 129//15
f 141//31 137//31 144//31
f 132//32 140//32 142//32
f 140//32 132//32 136//32
f 136//30 3//30 140//30
f 142//33 144//33 133//33
f 144//33 142//33 141//33
f 144//5 126//5 133//5
f 126//5 144//5 127//5
f 135//29 131//29 5//29
f 138//34 141//34 143//34
f 141//34 138//34 137//34
f 2//37 140//37 3//37
f 140//37 2//37 143//37
f 133//36 132//36 142//36
f 139//24 125//24 127//24
f 139//26 144//26 137//26
f 144//26 139//26 127//26
f 143//38 2//38 138//38
f 130//20 2//20 8//20
f 2//20 130//20 138//20
f 19//1 64//1 50//1
f 64//1 19//1 36//1
f 48//2 19//2 50//2
f 19//2 48//2 17//2
f 40//3 64//3 36//3
f 64//3 40//3 44//3
f 40//4 48//4 44//4
f 48//4 40//4 17//4
f 62//2 72//2 68//2
f 72//2 62//2 61//2
f 63//3 65//3 70//3
f 65//3 63//3 60//3
f 65//5 62//5 68//5
f 62//5 65//5 60//5
f 63//6 72//6 61//6
f 72//6 63//6 70//6
f 86//2 131//2 128//2
f 131//2 86//2 85//2
f 88//3 125//3 129//3
f 125//3 88//3 83//3
f 125//5 86//5 128//5
f 86//5 125//5 83//5
f 88//6 131//6 85//6
f 131//6 88//6 129//6
