# Blender v2.76 (sub 0) OBJ File: 'stc78c.blend'
# www.blender.org
o 3_Stc78C.001
v 0.951764 -0.727698 -0.796613
v 2.453920 -0.819618 -0.704693
v 0.951764 -0.819618 -0.704693
v 2.453920 -0.727698 -0.796613
v 2.453919 0.774458 0.889388
v 2.545844 -0.727699 0.797463
v 2.545844 0.774458 0.797464
v 2.453919 -0.727699 0.889387
v 2.453919 -0.819619 0.797463
v 0.951764 -0.727699 0.889387
v 0.951764 -0.819619 0.797463
v 0.859843 -0.727699 0.797463
v 2.453919 0.866382 0.797464
v 0.951764 0.866382 -0.704693
v 0.951764 0.866382 0.797463
v 2.453920 0.866382 -0.704692
v 0.951764 0.774458 -0.796613
v 2.453920 0.774458 -0.796613
v 0.859844 0.774458 -0.704693
v 2.545844 -0.727698 -0.704693
v 2.545844 0.774458 -0.704692
v 0.951764 0.774458 0.889387
v 0.859844 -0.727698 -0.704693
v 0.859843 0.774458 0.797463
v 0.753923 0.866382 -0.704693
v 0.845844 0.774458 -0.704693
v 0.753923 0.774458 -0.796613
v 0.753923 0.774458 0.889387
v 0.845844 -0.727699 0.797463
v 0.845844 0.774458 0.797463
v 0.753923 -0.727699 0.889387
v 0.753923 -0.819619 0.797463
v -0.748237 -0.727699 0.889387
v -0.748237 -0.819619 0.797463
v -0.840157 -0.727699 0.797463
v -0.840157 0.774458 -0.704693
v -0.840157 -0.727698 -0.704693
v -0.840157 0.774458 0.797463
v 0.753923 0.866382 0.797463
v -0.748237 -0.727698 -0.796613
v 0.753923 -0.819618 -0.704693
v -0.748237 -0.819618 -0.704693
v 0.753923 -0.727698 -0.796613
v 0.845844 -0.727698 -0.704693
v -0.748237 0.866382 -0.704693
v -0.748237 0.774458 -0.796613
v -0.748237 0.774458 0.889387
v -0.748237 0.866382 0.797463
v 0.845844 0.774458 -2.404693
v 0.753923 -0.727698 -2.496614
v 0.753923 0.774458 -2.496614
v 0.845844 -0.727698 -2.404694
v 0.753923 0.774458 -0.810613
v 0.845844 0.774458 -0.902533
v 0.753923 0.866382 -0.902533
v 0.845844 -0.727698 -0.902533
v 0.753923 -0.727698 -0.810613
v -0.748237 -0.819618 -2.404694
v -0.748237 -0.727698 -2.496614
v 0.753923 -0.819618 -2.404694
v 0.753923 -0.819618 -0.902533
v -0.748237 -0.727698 -0.810613
v -0.748237 -0.819618 -0.902534
v -0.748237 0.866382 -2.404694
v -0.748237 0.866382 -0.902533
v 0.753923 0.866382 -2.404693
v -0.840157 0.774458 -2.404694
v -0.748237 0.774458 -2.496614
v -0.840157 -0.727698 -0.902534
v -0.840157 -0.727698 -2.404694
v -0.840157 0.774458 -0.902533
v -0.748237 0.774458 -0.810613
v -0.748237 -2.427699 -2.496614
v 0.753923 -2.519619 -2.404694
v -0.748237 -2.519619 -2.404694
v 0.753923 -2.427699 -2.496614
v 0.753923 -0.925539 -0.810613
v 0.845844 -2.427699 -0.902534
v 0.845844 -0.925539 -0.902533
v 0.753923 -2.427699 -0.810613
v -0.748237 -2.519619 -0.902534
v 0.753923 -2.519619 -0.902534
v -0.748237 -2.427699 -0.810614
v -0.840157 -2.427699 -0.902534
v -0.840157 -0.925538 -2.404694
v -0.840157 -2.427699 -2.404694
v -0.840157 -0.925539 -0.902534
v 0.753923 -0.833619 -0.902533
v -0.748237 -0.925538 -2.496614
v 0.753923 -0.925538 -2.496614
v -0.748237 -0.833618 -2.404694
v 0.845844 -2.427699 -2.404694
v 0.845844 -0.925538 -2.404694
v -0.748237 -0.925539 -0.810613
v 0.753923 -0.833618 -2.404694
v -0.748237 -0.833619 -0.902534
v -0.854157 0.774458 -2.404694
v -0.946077 -0.727698 -2.496614
v -0.946077 0.774458 -2.496614
v -0.854157 -0.727698 -2.404694
v -0.946077 0.774458 -0.810613
v -0.854157 0.774458 -0.902533
v -0.946077 0.866382 -0.902533
v -0.854157 -0.727698 -0.902534
v -0.946077 -0.727698 -0.810613
v -2.448237 -0.819618 -2.404694
v -2.448237 -0.727698 -2.496614
v -0.946077 -0.819618 -2.404694
v -0.946077 -0.819618 -0.902534
v -2.448237 -0.727698 -0.810614
v -2.448237 -0.819618 -0.902534
v -2.448237 0.866382 -2.404694
v -2.448237 0.866382 -0.902534
v -0.946077 0.866382 -2.404694
v -2.540157 -0.727698 -0.902534
v -2.540157 0.774458 -2.404694
v -2.540157 -0.727698 -2.404694
v -2.540157 0.774458 -0.902534
v -2.448237 0.774458 -2.496614
v -2.448237 0.774458 -0.810613
vn 0.000000 -0.707100 -0.707100
vn 0.707100 -0.000000 0.707100
vn -0.000000 -0.707100 0.707100
vn -0.577400 -0.577400 0.577300
vn 0.577300 0.577400 0.577400
vn -0.000000 1.000000 0.000000
vn 0.000000 -1.000000 -0.000000
vn 0.000000 0.000000 -1.000000
vn -0.577400 0.577300 -0.577400
vn 1.000000 -0.000000 0.000000
vn -0.000000 -0.000000 1.000000
vn -0.707100 -0.707100 -0.000000
vn -0.707100 0.000000 -0.707100
vn 0.707100 0.707100 0.000000
vn 0.707100 0.000000 -0.707100
vn 0.577300 -0.577400 -0.577400
vn -0.707100 -0.000000 0.707100
vn -0.577400 0.577300 0.577300
vn -0.000000 0.707100 0.707100
vn 0.707100 -0.707100 0.000000
vn 0.577300 -0.577400 0.577300
vn -0.577400 -0.577400 -0.577400
vn 0.577300 0.577300 -0.577400
vn -0.707100 0.707100 0.000000
vn 0.000000 0.707100 -0.707100
vn 0.577400 0.577300 -0.577400
vn -1.000000 0.000000 -0.000000
vn 0.577400 0.577300 0.577300
vn 0.577400 -0.577400 0.577300
vn 0.577400 0.577300 0.577400
vn -0.577400 -0.577400 0.577400
vn 0.577300 -0.577400 0.577400
vn -0.577400 -0.577300 -0.577300
vn -0.577400 0.577300 0.577400
vn -0.577300 -0.577300 0.577400
vn -0.577400 0.577300 -0.577300
vn 0.577300 -0.577400 -0.577300
vn -0.577300 -0.577400 -0.577300
vn 0.577300 0.577400 -0.577400
vn 0.577400 -0.577400 -0.577300
vn -0.577300 -0.577400 0.577300
vn -0.577300 -0.577300 -0.577400
s off
f 1//1 2//1 3//1
f 2//1 1//1 4//1
f 5//2 6//2 7//2
f 6//2 5//2 8//2
f 9//3 10//3 11//3
f 10//3 9//3 8//3
f 11//4 10//4 12//4
f 5//5 7//5 13//5
f 13//6 14//6 15//6
f 14//6 13//6 16//6
f 2//7 11//7 3//7
f 11//7 2//7 9//7
f 17//8 4//8 1//8
f 4//8 17//8 18//8
f 19//9 14//9 17//9
f 7//10 20//10 21//10
f 20//10 7//10 6//10
f 5//11 10//11 8//11
f 10//11 5//11 22//11
f 11//12 23//12 3//12
f 23//12 11//12 12//12
f 23//13 17//13 1//13
f 17//13 23//13 19//13
f 13//14 21//14 16//14
f 21//14 13//14 7//14
f 18//15 20//15 4//15
f 20//15 18//15 21//15
f 4//16 20//16 2//16
f 10//17 24//17 12//17
f 24//17 10//17 22//17
f 24//18 22//18 15//18
f 13//19 22//19 5//19
f 22//19 13//19 15//19
f 20//20 9//20 2//20
f 9//20 20//20 6//20
f 9//21 6//21 8//21
f 1//22 3//22 23//22
f 16//23 21//23 18//23
f 24//24 14//24 19//24
f 14//24 24//24 15//24
f 14//25 18//25 17//25
f 18//25 14//25 16//25
f 25//26 26//26 27//26
f 28//2 29//2 30//2
f 29//2 28//2 31//2
f 32//3 33//3 34//3
f 33//3 32//3 31//3
f 34//4 33//4 35//4
f 35//27 36//27 37//27
f 36//27 35//27 38//27
f 28//28 30//28 39//28
f 40//1 41//1 42//1
f 41//1 40//1 43//1
f 44//20 32//20 41//20
f 32//20 44//20 29//20
f 36//9 45//9 46//9
f 41//7 34//7 42//7
f 34//7 41//7 32//7
f 28//11 33//11 31//11
f 33//11 28//11 47//11
f 42//12 35//12 37//12
f 35//12 42//12 34//12
f 36//13 40//13 37//13
f 40//13 36//13 46//13
f 39//6 45//6 48//6
f 45//6 39//6 25//6
f 38//24 45//24 36//24
f 45//24 38//24 48//24
f 43//16 44//16 41//16
f 32//29 29//29 31//29
f 39//14 26//14 25//14
f 26//14 39//14 30//14
f 40//22 42//22 37//22
f 33//17 38//17 35//17
f 38//17 33//17 47//17
f 45//25 27//25 46//25
f 27//25 45//25 25//25
f 27//15 44//15 43//15
f 44//15 27//15 26//15
f 38//18 47//18 48//18
f 39//19 47//19 28//19
f 47//19 39//19 48//19
f 49//15 50//15 51//15
f 50//15 49//15 52//15
f 53//30 54//30 55//30
f 53//2 56//2 54//2
f 56//2 53//2 57//2
f 50//1 58//1 59//1
f 58//1 50//1 60//1
f 61//3 62//3 63//3
f 62//3 61//3 57//3
f 55//6 64//6 65//6
f 64//6 55//6 66//6
f 52//20 61//20 60//20
f 61//20 52//20 56//20
f 50//16 52//16 60//16
f 55//14 49//14 66//14
f 49//14 55//14 54//14
f 67//9 64//9 68//9
f 58//12 69//12 70//12
f 69//12 58//12 63//12
f 63//31 62//31 69//31
f 70//13 68//13 59//13
f 68//13 70//13 67//13
f 68//8 50//8 59//8
f 50//8 68//8 51//8
f 61//32 56//32 57//32
f 71//24 64//24 67//24
f 64//24 71//24 65//24
f 54//10 52//10 49//10
f 52//10 54//10 56//10
f 62//17 71//17 69//17
f 71//17 62//17 72//17
f 59//33 58//33 70//33
f 66//26 49//26 51//26
f 55//19 72//19 53//19
f 72//19 55//19 65//19
f 64//25 51//25 68//25
f 51//25 64//25 66//25
f 71//34 72//34 65//34
f 73//1 74//1 75//1
f 74//1 73//1 76//1
f 77//2 78//2 79//2
f 78//2 77//2 80//2
f 80//3 81//3 82//3
f 81//3 80//3 83//3
f 81//35 83//35 84//35
f 84//27 85//27 86//27
f 85//27 84//27 87//27
f 77//5 79//5 88//5
f 74//7 81//7 75//7
f 81//7 74//7 82//7
f 89//8 76//8 73//8
f 76//8 89//8 90//8
f 85//36 91//36 89//36
f 79//10 92//10 93//10
f 92//10 79//10 78//10
f 77//11 83//11 80//11
f 83//11 77//11 94//11
f 81//12 86//12 75//12
f 86//12 81//12 84//12
f 86//13 89//13 73//13
f 89//13 86//13 85//13
f 88//14 93//14 95//14
f 93//14 88//14 79//14
f 93//15 76//15 90//15
f 76//15 93//15 92//15
f 76//37 92//37 74//37
f 83//17 87//17 84//17
f 87//17 83//17 94//17
f 87//34 94//34 96//34
f 88//19 94//19 77//19
f 94//19 88//19 96//19
f 78//20 74//20 92//20
f 74//20 78//20 82//20
f 82//32 78//32 80//32
f 73//38 75//38 86//38
f 95//39 93//39 90//39
f 87//24 91//24 85//24
f 91//24 87//24 96//24
f 91//25 90//25 89//25
f 90//25 91//25 95//25
f 97//15 98//15 99//15
f 98//15 97//15 100//15
f 101//30 102//30 103//30
f 101//2 104//2 102//2
f 104//2 101//2 105//2
f 98//1 106//1 107//1
f 106//1 98//1 108//1
f 109//3 110//3 111//3
f 110//3 109//3 105//3
f 108//7 111//7 106//7
f 111//7 108//7 109//7
f 103//6 112//6 113//6
f 112//6 103//6 114//6
f 115//27 116//27 117//27
f 116//27 115//27 118//27
f 100//20 109//20 108//20
f 109//20 100//20 104//20
f 98//40 100//40 108//40
f 103//14 97//14 114//14
f 97//14 103//14 102//14
f 116//9 112//9 119//9
f 106//12 115//12 117//12
f 115//12 106//12 111//12
f 101//11 110//11 105//11
f 110//11 101//11 120//11
f 111//41 110//41 115//41
f 117//13 119//13 107//13
f 119//13 117//13 116//13
f 119//8 98//8 107//8
f 98//8 119//8 99//8
f 109//29 104//29 105//29
f 118//24 112//24 116//24
f 112//24 118//24 113//24
f 110//17 118//17 115//17
f 118//17 110//17 120//17
f 107//42 106//42 117//42
f 114//26 97//26 99//26
f 112//25 99//25 119//25
f 99//25 112//25 114//25
f 118//34 120//34 113//34
f 103//19 120//19 101//19
f 120//19 103//19 113//19
f 70//7 104//7 100//7
f 104//7 70//7 69//7
f 71//6 97//6 102//6
f 97//6 71//6 67//6
f 97//8 70//8 100//8
f 70//8 97//8 67//8
f 71//11 104//11 69//11
f 104//11 71//11 102//11
f 96//27 58//27 91//27
f 58//27 96//27 63//27
f 61//10 95//10 60//10
f 95//10 61//10 88//10
f 58//8 95//8 91//8
f 95//8 58//8 60//8
f 61//11 96//11 88//11
f 96//11 61//11 63//11
f 23//7 29//7 44//7
f 29//7 23//7 12//7
f 24//6 26//6 30//6
f 26//6 24//6 19//6
f 26//8 23//8 44//8
f 23//8 26//8 19//8
f 24//11 29//11 12//11
f 29//11 24//11 30//11
f 40//27 72//27 62//27
f 72//27 40//27 46//27
f 57//7 40//7 62//7
f 40//7 57//7 43//7
f 27//6 72//6 46//6
f 72//6 27//6 53//6
f 27//10 57//10 53//10
f 57//10 27//10 43//10
