# Blender v2.83.0 OBJ File: 'coffin4.blend'
# www.blender.org
mtllib coffin93_1.mtl
v -1.060404 -2.938385 1.158325
v -0.950100 -2.938385 1.048021
v -0.950100 -1.135792 1.048021
v -1.060404 -1.135792 1.158325
v -0.950100 -3.048688 2.960912
v -0.950100 -3.048688 1.158325
v -1.060404 -2.938385 2.960912
v -1.077204 -2.938385 1.158325
v -1.077204 -2.938385 2.960912
v -1.077204 -1.135792 1.158325
v -1.187509 -1.025488 1.158325
v -1.077204 -1.135792 2.960912
v -1.187509 -1.135792 1.048021
v -1.187508 -2.938385 1.048021
v -1.060404 -1.135792 2.960912
v -0.950100 -1.025487 2.960912
v -0.950100 -1.135792 3.071221
v -0.950100 -2.938385 3.071221
v 0.852487 -1.135792 3.071221
v 0.852487 -2.938384 3.071221
v 0.852487 -3.048688 2.960912
v 0.962796 -2.938384 2.960912
v 0.962796 -2.938384 1.158325
v 0.962796 -1.135792 2.960912
v 0.852487 -3.048688 1.158325
v 0.852487 -2.938384 1.048021
v 0.962796 -1.135792 1.158325
v 0.852487 -1.135792 1.048021
v 0.852487 -1.025487 1.158325
v 0.852487 -1.025487 2.960912
v -0.950100 -1.025487 1.158325
v -1.187508 -3.048688 1.158325
v -2.990101 -2.938385 1.048021
v -1.187508 -2.938385 1.031221
v -1.187508 -3.048688 0.920917
v -1.077204 -2.938385 0.920917
v -1.187509 -1.135792 1.031221
v -2.990101 -3.048688 0.920917
v -2.990101 -2.938385 1.031221
v -3.100405 -2.938385 0.920917
v -3.100405 -1.135792 0.920917
v -2.990101 -1.135792 1.031221
v -2.990101 -1.025488 0.920917
v -2.990101 -1.135792 1.048021
v -3.100405 -1.135792 1.158325
v -2.990101 -1.025488 1.158325
v -3.100405 -2.938385 1.158325
v -3.100405 -2.938385 2.960912
v -2.990101 -3.048688 2.960912
v -2.990101 -3.048688 1.158325
v -1.187508 -3.048688 2.960912
v -2.990101 -2.938385 3.071221
v -1.187508 -2.938385 3.071221
v -1.187508 -1.135792 3.071221
v -1.187508 -1.025488 2.960912
v -2.990101 -1.135792 3.071221
v -2.990101 -1.025488 2.960912
v -3.100405 -1.135792 2.960912
v -3.100405 -1.135792 -0.881676
v -2.990101 -1.025488 -0.881676
v -1.187509 -1.025488 0.920917
v -1.077204 -1.135792 0.920917
v -1.187509 -1.025488 -0.881676
v -1.077204 -1.135792 -0.881676
v -2.990101 -1.135792 -0.991980
v -1.187509 -1.135792 -0.991980
v -2.088805 -1.362484 -0.991980
v -1.414201 -1.362484 -0.991980
v -1.187508 -2.938385 -0.991980
v -2.990101 -2.938385 -0.991980
v -2.088805 -2.711692 -0.991980
v -1.414200 -2.711692 -0.991980
v -1.077204 -2.938385 -0.881676
v -1.187508 -3.048688 -0.881676
v -2.990101 -3.048688 -0.881676
v -3.100405 -2.938385 -0.881676
v -1.414200 -2.711692 0.348817
v -1.414200 -2.069379 -0.656952
v -1.414200 -2.284900 -0.127032
v -1.414200 -2.210740 -0.127032
v -1.354213 -2.284900 -0.127032
v -1.354213 -2.069379 -0.656952
v -1.354213 -2.128180 -0.334392
v -1.354213 -2.149900 -0.278472
v -1.354213 -2.210740 -0.127032
v -1.354213 -1.930540 -0.334392
v -1.354213 -1.909179 -0.278472
v -1.414201 -1.909179 -0.278472
v -1.414200 -2.149900 -0.278472
v -1.414201 -1.848820 -0.127032
v -1.354213 -1.848820 -0.127032
v -1.354213 -1.775740 -0.127032
v -1.414201 -1.775740 -0.127032
v -1.414200 -1.987900 -0.656952
v -1.414201 -1.362484 0.348817
v -1.354213 -1.987900 -0.656952
v -1.354213 -2.029540 -0.602952
v -1.354213 -2.019460 -0.571272
v -1.354213 -2.017120 -0.564000
v -1.354213 -2.014780 -0.556884
v -1.354213 -2.012440 -0.549936
v -1.354213 -2.010100 -0.543156
v -1.354213 -2.007772 -0.536544
v -1.354213 -2.005432 -0.530100
v -1.354213 -2.003103 -0.523812
v -1.354213 -2.000788 -0.517704
v -1.354213 -1.998460 -0.511752
v -1.414200 -1.998460 -0.511752
v -1.414200 -2.000788 -0.517704
v -1.414200 -2.056648 -0.521820
v -1.414200 -2.003103 -0.523812
v -1.414200 -2.060620 -0.511032
v -1.414200 -1.930540 -0.334392
v -1.414200 -2.128180 -0.334392
v -1.354213 -2.060620 -0.511032
v -1.354213 -2.056648 -0.521820
v -1.354213 -2.052904 -0.532176
v -1.354213 -2.049376 -0.542088
v -1.414200 -2.052904 -0.532176
v -1.414200 -2.049376 -0.542088
v -1.414200 -2.007772 -0.536544
v -1.414200 -2.005432 -0.530100
v -1.414200 -2.010100 -0.543156
v -1.414200 -2.012440 -0.549936
v -1.414200 -2.046076 -0.551556
v -1.414200 -2.014780 -0.556884
v -1.414200 -2.043004 -0.560580
v -1.414200 -2.017120 -0.564000
v -1.414200 -2.040148 -0.569160
v -1.414200 -2.019460 -0.571272
v -1.414200 -2.035096 -0.585012
v -1.414200 -2.032900 -0.592272
v -1.414200 -2.029540 -0.602952
v -1.414200 -2.037508 -0.577308
v -1.354213 -2.037508 -0.577308
v -1.354213 -2.035096 -0.585012
v -1.354213 -2.032900 -0.592272
v -1.354213 -2.040148 -0.569160
v -1.354213 -2.043004 -0.560580
v -1.354213 -2.046076 -0.551556
v -2.088805 -1.362484 0.348817
v -2.763409 -2.037088 0.348817
v -2.088805 -2.711692 0.348817
v -2.763409 -2.037088 -0.991980
vn -0.5773 -0.5774 -0.5774
vn -0.7071 -0.0000 -0.7071
vn 0.0000 0.0000 -1.0000
vn -0.7071 -0.7071 0.0000
vn 0.0000 -1.0000 0.0000
vn 0.5773 0.5774 -0.5774
vn 0.7071 0.7071 0.0000
vn 0.0000 1.0000 0.0000
vn 0.7071 0.0000 -0.7071
vn -0.5774 0.5774 0.5773
vn -0.7071 0.7071 0.0000
vn -0.7071 -0.0000 0.7071
vn 0.0000 0.0000 1.0000
vn 0.0000 -0.7071 0.7071
vn -0.5774 -0.5774 0.5773
vn 0.7071 0.0000 0.7071
vn 0.5773 -0.5774 0.5773
vn 0.7071 -0.7071 0.0000
vn 1.0000 0.0000 0.0000
vn 0.0000 -0.7071 -0.7071
vn 0.5773 -0.5774 -0.5774
vn -0.0000 0.7071 -0.7071
vn -0.5774 0.5773 -0.5773
vn 0.5773 0.5774 0.5773
vn 0.0000 0.7071 0.7071
vn 0.5773 -0.5774 -0.5773
vn -0.5774 -0.5774 0.5774
vn -1.0000 0.0000 0.0000
vn -0.5774 0.5773 0.5774
vn -0.5774 0.5773 -0.5774
vn -0.5774 -0.5774 -0.5774
vn 0.5774 -0.5774 0.5773
vn 0.5774 0.5774 0.5773
vn 0.5773 0.5774 0.5774
vn 0.5774 0.5774 -0.5773
vn 0.0000 0.9263 0.3767
vn 0.0000 -0.9279 -0.3728
vn 0.0000 0.9289 -0.3702
vn 0.0000 -0.9284 0.3717
vn -1.0000 -0.0001 0.0000
vn -1.0000 0.0001 0.0000
vn 0.0000 0.9313 -0.3643
vn 0.0000 0.9339 -0.3576
vn 0.0000 0.9351 -0.3545
vn 0.0000 -0.9384 -0.3455
vn 0.0000 -0.9340 -0.3572
vn 0.0000 -0.9404 -0.3400
vn 0.0000 -0.9421 -0.3353
vn 0.0000 0.9399 -0.3413
vn 0.0000 0.9378 -0.3472
vn 0.0000 0.9432 -0.3321
vn 0.0000 0.9400 -0.3413
vn 0.0000 0.9453 -0.3263
vn 0.0000 0.9477 -0.3191
vn 0.0000 0.9453 -0.3262
vn 0.0000 0.9499 -0.3124
vn 0.0000 0.9477 -0.3192
vn 0.0000 0.9519 -0.3063
vn 0.0000 0.9500 -0.3124
vn 0.0000 0.9529 -0.3032
vn 0.0000 0.9519 -0.3064
vn 0.0000 -0.9543 -0.2988
vn 0.0000 -0.9513 -0.3082
vn 0.0000 -0.9572 -0.2894
vn 0.0000 -0.9539 -0.3001
vn 0.0000 -0.9488 -0.3158
vn 0.0000 -0.9488 -0.3159
vn 0.0000 -0.9467 -0.3222
vn 0.0000 -0.9466 -0.3223
vn 0.0000 -0.9443 -0.3292
vn 0.0000 -0.9443 -0.3291
vn 0.0000 0.9351 -0.3544
vn -0.5773 0.5774 -0.5773
usemtl None
s off
f 1//1 2//1 6//1
f 1//2 3//2 2//2
f 3//2 1//2 4//2
f 1//3 10//3 4//3
f 1//4 5//4 7//4
f 5//4 1//4 6//4
f 9//5 1//5 7//5
f 10//3 1//3 8//3
f 1//5 9//5 8//5
f 13//6 11//6 10//6
f 11//7 12//7 10//7
f 15//8 10//8 12//8
f 10//9 14//9 13//9
f 14//9 10//9 8//9
f 10//8 15//8 4//8
f 17//10 16//10 15//10
f 16//11 4//11 15//11
f 15//12 18//12 17//12
f 18//12 15//12 7//12
f 15//13 9//13 7//13
f 9//13 15//13 12//13
f 18//13 19//13 17//13
f 19//13 18//13 20//13
f 5//14 20//14 18//14
f 5//15 18//15 7//15
f 22//16 19//16 20//16
f 20//14 5//14 21//14
f 21//17 22//17 20//17
f 22//18 25//18 23//18
f 23//19 24//19 22//19
f 19//16 22//16 24//16
f 25//18 22//18 21//18
f 25//20 2//20 26//20
f 26//21 23//21 25//21
f 2//20 25//20 6//20
f 25//5 5//5 6//5
f 5//5 25//5 21//5
f 26//9 27//9 23//9
f 27//9 26//9 28//9
f 26//3 3//3 28//3
f 3//3 26//3 2//3
f 28//6 29//6 27//6
f 3//22 29//22 28//22
f 29//7 24//7 27//7
f 24//7 29//7 30//7
f 31//8 30//8 29//8
f 29//22 3//22 31//22
f 30//8 31//8 16//8
f 4//11 16//11 31//11
f 4//23 31//23 3//23
f 24//24 30//24 19//24
f 16//25 19//25 30//25
f 24//19 23//19 27//19
f 19//25 16//25 17//25
f 34//19 13//19 14//19
f 14//26 8//26 32//26
f 32//20 33//20 14//20
f 33//5 34//5 14//5
f 34//14 38//14 35//14
f 35//17 36//17 34//17
f 36//16 37//16 34//16
f 13//19 34//19 37//19
f 38//14 34//14 39//14
f 34//5 33//5 39//5
f 38//27 39//27 40//27
f 39//12 41//12 40//12
f 41//12 39//12 42//12
f 33//28 42//28 39//28
f 42//8 13//8 37//8
f 37//25 43//25 42//25
f 42//29 43//29 41//29
f 13//8 42//8 44//8
f 42//28 33//28 44//28
f 44//2 47//2 45//2
f 45//30 46//30 44//30
f 11//22 44//22 46//22
f 47//2 44//2 33//2
f 44//22 11//22 13//22
f 47//31 33//31 50//31
f 48//28 45//28 47//28
f 47//4 49//4 48//4
f 49//4 47//4 50//4
f 33//20 32//20 50//20
f 32//5 49//5 50//5
f 49//5 32//5 51//5
f 53//14 49//14 51//14
f 49//15 52//15 48//15
f 49//14 53//14 52//14
f 9//16 54//16 53//16
f 54//13 52//13 53//13
f 51//32 9//32 53//32
f 54//16 9//16 12//16
f 12//33 55//33 54//33
f 57//25 54//25 55//25
f 52//13 54//13 56//13
f 54//25 57//25 56//25
f 56//10 57//10 58//10
f 55//8 46//8 57//8
f 57//11 45//11 58//11
f 45//11 57//11 46//11
f 45//28 48//28 58//28
f 52//12 58//12 48//12
f 58//12 52//12 56//12
f 12//7 11//7 55//7
f 46//8 55//8 11//8
f 32//18 9//18 51//18
f 43//11 59//11 41//11
f 59//11 43//11 60//11
f 61//8 60//8 43//8
f 43//25 37//25 61//25
f 62//34 61//34 37//34
f 62//7 63//7 61//7
f 60//8 61//8 63//8
f 63//7 62//7 64//7
f 66//35 63//35 64//35
f 63//22 65//22 60//22
f 65//22 63//22 66//22
f 66//3 67//3 65//3
f 67//3 66//3 68//3
f 68//3 66//3 69//3
f 64//9 69//9 66//9
f 74//20 70//20 69//20
f 70//3 71//3 69//3
f 72//3 69//3 71//3
f 68//3 69//3 72//3
f 69//9 64//9 73//9
f 69//21 73//21 74//21
f 36//18 74//18 73//18
f 70//20 74//20 75//20
f 74//5 38//5 75//5
f 38//5 74//5 35//5
f 74//18 36//18 35//18
f 38//4 76//4 75//4
f 76//31 70//31 75//31
f 76//2 65//2 70//2
f 65//2 76//2 59//2
f 40//28 59//28 76//28
f 76//4 38//4 40//4
f 62//19 73//19 64//19
f 73//19 62//19 36//19
f 71//8 77//8 72//8
f 72//28 78//28 68//28
f 77//28 79//28 72//28
f 72//28 79//28 78//28
f 81//36 78//36 79//36
f 77//28 80//28 79//28
f 80//3 81//3 79//3
f 78//36 81//36 82//36
f 81//28 83//28 82//28
f 83//28 81//28 84//28
f 84//28 81//28 85//28
f 81//3 80//3 85//3
f 80//37 84//37 85//37
f 83//28 84//28 86//28
f 87//28 86//28 84//28
f 84//3 88//3 87//3
f 88//3 84//3 89//3
f 84//37 80//37 89//37
f 80//28 88//28 89//28
f 88//28 80//28 90//28
f 91//38 88//38 90//38
f 88//38 91//38 87//38
f 91//3 93//3 92//3
f 92//28 87//28 91//28
f 93//3 91//3 90//3
f 96//39 93//39 94//39
f 93//28 68//28 94//28
f 93//28 95//28 68//28
f 90//28 95//28 93//28
f 93//39 96//39 92//39
f 96//13 78//13 82//13
f 82//28 97//28 96//28
f 98//28 96//28 97//28
f 99//28 96//28 98//28
f 100//28 96//28 99//28
f 101//28 96//28 100//28
f 102//28 96//28 101//28
f 103//28 96//28 102//28
f 104//28 96//28 103//28
f 105//40 96//40 104//40
f 106//28 96//28 105//28
f 107//41 96//41 106//41
f 86//28 96//28 107//28
f 86//28 92//28 96//28
f 78//13 96//13 94//13
f 109//42 107//42 106//42
f 108//43 86//43 107//43
f 107//42 109//42 108//42
f 112//28 109//28 110//28
f 110//28 109//28 111//28
f 106//44 111//44 109//44
f 109//28 112//28 108//28
f 116//45 112//45 110//45
f 112//28 113//28 108//28
f 113//28 112//28 114//28
f 115//46 114//46 112//46
f 112//45 116//45 115//45
f 82//28 115//28 116//28
f 82//28 116//28 117//28
f 110//47 117//47 116//47
f 82//28 117//28 118//28
f 119//48 118//48 117//48
f 117//47 110//47 119//47
f 118//48 119//48 120//48
f 119//28 121//28 120//28
f 119//28 122//28 121//28
f 110//28 122//28 119//28
f 104//49 121//49 122//49
f 122//28 110//28 111//28
f 105//50 122//50 111//50
f 122//50 105//50 104//50
f 120//28 121//28 123//28
f 103//51 123//51 121//51
f 121//52 104//52 103//52
f 102//53 124//53 123//53
f 124//28 120//28 123//28
f 123//51 103//51 102//51
f 120//28 124//28 125//28
f 125//28 124//28 126//28
f 101//54 126//54 124//54
f 124//55 102//55 101//55
f 125//28 126//28 127//28
f 127//28 126//28 128//28
f 100//56 128//56 126//56
f 126//57 101//57 100//57
f 127//28 128//28 129//28
f 129//28 128//28 130//28
f 99//58 130//58 128//58
f 128//59 100//59 99//59
f 134//28 130//28 131//28
f 130//28 132//28 131//28
f 132//28 130//28 133//28
f 98//60 133//60 130//60
f 129//28 130//28 134//28
f 130//61 99//61 98//61
f 136//62 134//62 131//62
f 135//63 129//63 134//63
f 134//62 136//62 135//62
f 82//28 135//28 136//28
f 82//28 136//28 137//28
f 131//64 137//64 136//64
f 82//28 137//28 97//28
f 132//65 97//65 137//65
f 137//64 131//64 132//64
f 82//28 138//28 135//28
f 129//63 135//63 138//63
f 82//28 139//28 138//28
f 127//66 138//66 139//66
f 138//67 127//67 129//67
f 82//28 140//28 139//28
f 125//68 139//68 140//68
f 139//69 125//69 127//69
f 82//28 118//28 140//28
f 120//70 140//70 118//70
f 140//71 120//71 125//71
f 97//65 132//65 133//65
f 133//60 98//60 97//60
f 82//28 83//28 115//28
f 114//46 115//46 83//46
f 114//13 86//13 113//13
f 86//13 114//13 83//13
f 86//43 108//43 113//43
f 111//72 106//72 105//72
f 77//3 141//3 95//3
f 141//5 68//5 95//5
f 95//28 80//28 77//28
f 80//28 95//28 90//28
f 68//5 141//5 67//5
f 142//18 67//18 141//18
f 141//3 143//3 142//3
f 143//3 141//3 77//3
f 77//8 71//8 143//8
f 144//7 143//7 71//7
f 143//7 144//7 142//7
f 65//3 144//3 70//3
f 70//3 144//3 71//3
f 67//18 142//18 144//18
f 144//3 65//3 67//3
f 94//28 68//28 78//28
f 92//28 86//28 87//28
f 59//73 60//73 65//73
f 37//16 36//16 62//16
f 59//28 40//28 41//28
f 9//18 32//18 8//18
